<?xml version="1.0" encoding="utf-8"?>
<!-- Generator: Adobe Illustrator 24.1.3, SVG Export Plug-In . SVG Version: 6.00 Build 0)  -->
<svg version="1.1" id="Capa_1" xmlns="http://www.w3.org/2000/svg" xmlns:xlink="http://www.w3.org/1999/xlink" x="0px" y="0px"
	 viewBox="0 0 512 512" style="enable-background:new 0 0 512 512;" xml:space="preserve">
<style type="text/css">
	.st0{fill:#6C727C;stroke:#6C727C;stroke-width:0.5;stroke-miterlimit:10;}
</style>
<g>
	<g>
		<path class="st0" d="M271.1,242.8c-0.4,0-8.4,0-8.7,0c-1.2,0-2.2,1.2-2.2,2.6v16.8c0,1.4,1,2.6,2.2,2.6h8.7c1.2,0,2.2-1.2,2.2-2.6
			v-16.8C273.2,243.9,272.3,242.8,271.1,242.8z M271.8,262.2c0,0.5-0.3,0.9-0.7,0.9h-8.7c-0.4,0-0.7-0.4-0.7-0.9v-16.8
			c0-0.5,0.3-0.9,0.7-0.9h1.3l0.2,0.5c0.1,0.3,0.4,0.6,0.7,0.6h4.4c0.3,0,0.6-0.2,0.7-0.6l0.2-0.5h1.3c0.4,0,0.7,0.4,0.7,0.9V262.2z
			"/>
	</g>
</g>
</svg>
