<?xml version="1.0" encoding="utf-8"?>
<!-- Generator: Adobe Illustrator 24.1.3, SVG Export Plug-In . SVG Version: 6.00 Build 0)  -->
<svg version="1.1" id="Layer_1" xmlns="http://www.w3.org/2000/svg" xmlns:xlink="http://www.w3.org/1999/xlink" x="0px" y="0px"
	 viewBox="0 0 512 512" style="enable-background:new 0 0 512 512;" xml:space="preserve">
<style type="text/css">
	.st0{fill:#0091FF;stroke:#0091FF;stroke-width:10;stroke-miterlimit:10;}
</style>
<g id="Numbers">
	<text transform="matrix(1 0 0 1 221.3711 -128.3064)" style="fill:#FF0000; font-family:'ArialMT'; font-size:124.5405px;">4</text>
	<text transform="matrix(1 0 0 1 186.7422 729.6389)" style="fill:#FF0000; font-family:'ArialMT'; font-size:124.5405px;">14</text>
	<text transform="matrix(1 0 0 1 186.7422 1587.5881)" style="fill:#FF0000; font-family:'ArialMT'; font-size:124.5405px;">24</text>
	<text transform="matrix(1 0 0 1 186.7422 2445.5334)" style="fill:#FF0000; font-family:'ArialMT'; font-size:124.5405px;">34</text>
	<text transform="matrix(1 0 0 1 186.7422 3303.4788)" style="fill:#FF0000; font-family:'ArialMT'; font-size:124.5405px;">44</text>
	<text transform="matrix(1 0 0 1 186.7422 4161.4238)" style="fill:#FF0000; font-family:'ArialMT'; font-size:124.5405px;">54</text>
	<text transform="matrix(1 0 0 1 186.7422 5019.3691)" style="fill:#FF0000; font-family:'ArialMT'; font-size:124.5405px;">64</text>
	<text transform="matrix(1 0 0 1 186.7422 5877.3145)" style="fill:#FF0000; font-family:'ArialMT'; font-size:124.5405px;">74</text>
	<text transform="matrix(1 0 0 1 186.7422 6735.2637)" style="fill:#FF0000; font-family:'ArialMT'; font-size:124.5405px;">84</text>
	<text transform="matrix(1 0 0 1 186.7422 7593.209)" style="fill:#FF0000; font-family:'ArialMT'; font-size:124.5405px;">94</text>
	<text transform="matrix(1 0 0 1 152.1055 8451.1543)" style="fill:#FF0000; font-family:'ArialMT'; font-size:124.5405px;">104</text>
	
		<text transform="matrix(1 0 0 1 156.7305 9309.0996)" style="fill:#FF0000; font-family:'ArialMT'; font-size:124.5405px; letter-spacing:-9;">1</text>
	<text transform="matrix(1 0 0 1 216.75 9309.0996)" style="fill:#FF0000; font-family:'ArialMT'; font-size:124.5405px;">14</text>
	<text transform="matrix(1 0 0 1 152.1055 10167.0449)" style="fill:#FF0000; font-family:'ArialMT'; font-size:124.5405px;">124</text>
	<text transform="matrix(1 0 0 1 152.1055 11024.9902)" style="fill:#FF0000; font-family:'ArialMT'; font-size:124.5405px;">134</text>
	<text transform="matrix(1 0 0 1 152.1055 11882.9395)" style="fill:#FF0000; font-family:'ArialMT'; font-size:124.5405px;">144</text>
	<text transform="matrix(1 0 0 1 152.1055 12740.8848)" style="fill:#FF0000; font-family:'ArialMT'; font-size:124.5405px;">154</text>
	<text transform="matrix(1 0 0 1 152.1055 13598.8301)" style="fill:#FF0000; font-family:'ArialMT'; font-size:124.5405px;">164</text>
	<text transform="matrix(1 0 0 1 152.1055 14456.7754)" style="fill:#FF0000; font-family:'ArialMT'; font-size:124.5405px;">174</text>
	<text transform="matrix(1 0 0 1 152.1055 15314.7207)" style="fill:#FF0000; font-family:'ArialMT'; font-size:124.5405px;">184</text>
	<text transform="matrix(1 0 0 1 152.1055 16172.666)" style="fill:#FF0000; font-family:'ArialMT'; font-size:124.5405px;">194</text>
	<text transform="matrix(1 0 0 1 152.1055 17030.6152)" style="fill:#FF0000; font-family:'ArialMT'; font-size:124.5405px;">204</text>
	<text transform="matrix(1 0 0 1 152.1055 17888.5605)" style="fill:#FF0000; font-family:'ArialMT'; font-size:124.5405px;">214</text>
	<text transform="matrix(1 0 0 1 152.1055 18746.5059)" style="fill:#FF0000; font-family:'ArialMT'; font-size:124.5405px;">224</text>
	<text transform="matrix(1 0 0 1 152.1055 19604.4512)" style="fill:#FF0000; font-family:'ArialMT'; font-size:124.5405px;">234</text>
	<text transform="matrix(1 0 0 1 152.1055 20462.3984)" style="fill:#FF0000; font-family:'ArialMT'; font-size:124.5405px;">244</text>
	<text transform="matrix(1 0 0 1 152.1055 21320.3438)" style="fill:#FF0000; font-family:'ArialMT'; font-size:124.5405px;">254</text>
	<text transform="matrix(1 0 0 1 152.1055 22178.2891)" style="fill:#FF0000; font-family:'ArialMT'; font-size:124.5405px;">264</text>
	<text transform="matrix(1 0 0 1 152.1055 23036.2363)" style="fill:#FF0000; font-family:'ArialMT'; font-size:124.5405px;">274</text>
	<text transform="matrix(1 0 0 1 152.1055 23894.1816)" style="fill:#FF0000; font-family:'ArialMT'; font-size:124.5405px;">284</text>
	<text transform="matrix(1 0 0 1 152.1055 24752.127)" style="fill:#FF0000; font-family:'ArialMT'; font-size:124.5405px;">294</text>
</g>
<g id="_2_PT">
	<path class="st0" d="M491.2,152.2H20.8c-3.8,0-6.9-3.1-6.9-6.9c0-1,0.2-2,0.6-2.9L56,52.5c1.1-2.5,3.6-4,6.3-4h387.5
		c2.7,0,5.2,1.6,6.3,4l41.5,89.9c1.6,3.5,0.1,7.6-3.4,9.2C493.2,152,492.2,152.2,491.2,152.2z M31.6,138.4h448.9l-35.1-76.1H66.7
		L31.6,138.4z"/>
	<path class="st0" d="M54.4,235.2c-22.4,0-40.5-18.2-40.5-40.5v-49.4c0-3.8,3.1-6.9,6.9-6.9H88c3.8,0,6.9,3.1,6.9,6.9v49.4
		C94.9,217.1,76.7,235.2,54.4,235.2z M27.7,152.2v42.5c0,14.7,11.9,26.7,26.7,26.7S81,209.5,81,194.7v-42.5H27.7z"/>
	<path class="st0" d="M121.6,235.2c-22.4,0-40.5-18.2-40.5-40.5v-49.4c0-3.8,3.1-6.9,6.9-6.9h67.2c3.8,0,6.9,3.1,6.9,6.9v49.4
		C162.1,217.1,143.9,235.2,121.6,235.2z M94.9,152.2v42.5c0,14.7,12,26.7,26.7,26.7c14.7,0,26.7-11.9,26.7-26.7v-42.5H94.9z"/>
	<path class="st0" d="M188.8,235.2c-22.4,0-40.5-18.2-40.5-40.5v-49.4c0-3.8,3.1-6.9,6.9-6.9h67.2c3.8,0,6.9,3.1,6.9,6.9v49.4
		C229.3,217.1,211.2,235.2,188.8,235.2z M162.1,152.2v42.5c0,14.7,11.9,26.7,26.7,26.7c14.7,0,26.7-11.9,26.7-26.7v-42.5H162.1z"/>
	<path class="st0" d="M256,235.2c-22.4,0-40.5-18.2-40.5-40.5v-49.4c0-3.8,3.1-6.9,6.9-6.9h67.2c3.8,0,6.9,3.1,6.9,6.9v49.4
		C296.5,217.1,278.4,235.2,256,235.2z M229.3,152.2v42.5c0,14.7,11.9,26.7,26.7,26.7c14.7,0,26.7-11.9,26.7-26.7v-42.5H229.3z"/>
	<path class="st0" d="M323.2,235.2c-22.4,0-40.5-18.2-40.5-40.5v-49.4c0-3.8,3.1-6.9,6.9-6.9h67.2c3.8,0,6.9,3.1,6.9,6.9v49.4
		C363.7,217.1,345.6,235.2,323.2,235.2z M296.5,152.2v42.5c0,14.7,11.9,26.7,26.7,26.7c14.7,0,26.7-11.9,26.7-26.7v-42.5H296.5z"/>
	<path class="st0" d="M390.4,235.2c-22.4,0-40.5-18.2-40.5-40.5v-49.4c0-3.8,3.1-6.9,6.9-6.9H424c3.8,0,6.9,3.1,6.9,6.9v49.4
		C430.9,217.1,412.8,235.2,390.4,235.2z M363.7,152.2v42.5c0,14.7,11.9,26.7,26.7,26.7c14.7,0,26.7-11.9,26.7-26.7v-42.5H363.7z"/>
	<path class="st0" d="M457.6,235.2c-22.4,0-40.5-18.2-40.5-40.5v-49.4c0-3.8,3.1-6.9,6.9-6.9h67.2c3.8,0,6.9,3.1,6.9,6.9v49.4
		C498.1,217.1,480,235.2,457.6,235.2z M431,152.2v42.5c0,14.7,11.9,26.7,26.7,26.7c14.7,0,26.7-11.9,26.7-26.7v-42.5H431z"/>
	<path class="st0" d="M470.5,484.3H40.9c-3.8,0-6.9-3.1-6.9-6.9v-256h13.8v249.1h415.8V221.4h13.8v256
		C477.4,481.2,474.3,484.3,470.5,484.3z"/>
	<path class="st0" d="M415.1,484.3H297.5c-3.8,0-6.9-3.1-6.9-6.9V283.7c0-3.8,3.1-6.9,6.9-6.9h117.6c3.8,0,6.9,3.1,6.9,6.9v193.7
		C422.1,481.2,419,484.3,415.1,484.3z M304.4,470.5h103.8V290.6H304.4V470.5z"/>
	<path class="st0" d="M256,425.5H83c-3.8,0-6.9-3.1-6.9-6.9V280.2c0-3.8,3.1-6.9,6.9-6.9h173c3.8,0,6.9,3.1,6.9,6.9v138.4
		C262.9,422.4,259.8,425.5,256,425.5z M89.9,411.7h159.1V287.1H89.9V411.7z"/>
</g>
</svg>
