<svg width="658" height="180" viewBox="0 0 658 180" fill="none" xmlns="http://www.w3.org/2000/svg">
<rect width="658" height="180" fill="url(#paint0_linear_300_88)"/>
<line x1="582.846" y1="159.2" x2="658" y2="159.2" stroke="#FFE500" stroke-width="2"/>
<line y1="19" x2="75.1543" y2="19" stroke="#FFE500" stroke-width="2"/>
<rect x="577.416" y="120.8" width="65.3466" height="6.8" rx="3.4" transform="rotate(-180 577.416 120.8)" fill="#E2E0E0" fill-opacity="0.5"/>
<ellipse cx="503.901" cy="125.9" rx="4.90099" ry="5.1" transform="rotate(-180 503.901 125.9)" fill="#E2E0E0" fill-opacity="0.5"/>
<rect x="75" y="71.2001" width="63.75" height="6.8" rx="3.4" fill="#E2E2E2" fill-opacity="0.6"/>
<ellipse cx="146.719" cy="66.1" rx="4.78125" ry="5.1" fill="#E2E2E2" fill-opacity="0.6"/>
<path d="M55.7531 135H0V160H59.0983C62.4434 160 62.4434 155 59.0983 155H39.0271C36.797 155 36.797 150 39.0271 150H46.5276C49.0627 150 49.0627 145 46.5276 145H34.5669C32.3368 145 32.3368 140 34.5669 140H55.7531C57.868 140 57.868 135 55.7531 135Z" fill="#007398" fill-opacity="0.7"/>
<rect x="59.759" y="135" width="9.24107" height="5.43478" rx="2.71739" fill="#007398" fill-opacity="0.7"/>
<rect x="49.9019" y="144.783" width="9.24107" height="5.43478" rx="2.71739" fill="#007398" fill-opacity="0.7"/>
<path d="M605.479 40L658 40V16.4L602.328 16.4C599.176 16.4 599.176 21.12 602.328 21.12L621.235 21.12C623.336 21.12 623.336 25.84 621.235 25.84L614.17 25.84C611.781 25.84 611.781 30.56 614.17 30.56L625.437 30.56C627.538 30.56 627.538 35.28 625.437 35.28L605.479 35.28C603.487 35.28 603.487 40 605.479 40Z" fill="#04FFF0" fill-opacity="0.7"/>
<rect x="601.705" y="40" width="8.70536" height="5.13042" rx="2.56521" transform="rotate(-180 601.705 40)" fill="#04FFF0" fill-opacity="0.7"/>
<rect x="610.991" y="30.7654" width="8.70536" height="5.13042" rx="2.56521" transform="rotate(-180 610.991 30.7654)" fill="#04FFF0" fill-opacity="0.7"/>
<rect x="218" y="104" width="217" height="39" rx="10" fill="#007398"/>
<path d="M240.904 121.968C240.872 121.915 240.76 121.835 240.568 121.728C240.376 121.611 240.136 121.488 239.848 121.36C239.56 121.232 239.245 121.12 238.904 121.024C238.563 120.928 238.221 120.88 237.88 120.88C237.432 120.88 237.085 120.96 236.84 121.12C236.595 121.269 236.472 121.504 236.472 121.824C236.472 122.08 236.563 122.283 236.744 122.432C236.936 122.581 237.208 122.715 237.56 122.832C237.912 122.939 238.344 123.067 238.856 123.216C239.581 123.408 240.211 123.643 240.744 123.92C241.277 124.187 241.683 124.533 241.96 124.96C242.248 125.387 242.392 125.952 242.392 126.656C242.392 127.296 242.275 127.84 242.04 128.288C241.805 128.725 241.485 129.083 241.08 129.36C240.685 129.627 240.232 129.824 239.72 129.952C239.208 130.069 238.68 130.128 238.136 130.128C237.581 130.128 237.011 130.075 236.424 129.968C235.848 129.851 235.293 129.691 234.76 129.488C234.227 129.275 233.736 129.019 233.288 128.72L234.44 126.432C234.483 126.485 234.621 126.587 234.856 126.736C235.091 126.875 235.379 127.024 235.72 127.184C236.072 127.333 236.461 127.467 236.888 127.584C237.315 127.701 237.747 127.76 238.184 127.76C238.653 127.76 239 127.685 239.224 127.536C239.459 127.387 239.576 127.179 239.576 126.912C239.576 126.624 239.453 126.4 239.208 126.24C238.973 126.08 238.648 125.936 238.232 125.808C237.827 125.68 237.357 125.536 236.824 125.376C236.131 125.163 235.555 124.923 235.096 124.656C234.648 124.389 234.312 124.064 234.088 123.68C233.875 123.296 233.768 122.816 233.768 122.24C233.768 121.44 233.955 120.768 234.328 120.224C234.712 119.669 235.224 119.253 235.864 118.976C236.504 118.688 237.203 118.544 237.96 118.544C238.493 118.544 239.005 118.608 239.496 118.736C239.997 118.864 240.461 119.024 240.888 119.216C241.325 119.408 241.715 119.6 242.056 119.792L240.904 121.968ZM247.74 130.16C247.025 130.16 246.39 130.048 245.836 129.824C245.281 129.589 244.806 129.275 244.412 128.88C244.028 128.485 243.734 128.032 243.532 127.52C243.329 126.997 243.228 126.453 243.228 125.888C243.228 125.077 243.404 124.341 243.756 123.68C244.118 123.008 244.636 122.469 245.308 122.064C245.98 121.648 246.79 121.44 247.74 121.44C248.689 121.44 249.494 121.643 250.156 122.048C250.828 122.453 251.34 122.987 251.692 123.648C252.044 124.299 252.22 125.008 252.22 125.776C252.22 125.925 252.209 126.075 252.188 126.224C252.177 126.363 252.166 126.485 252.156 126.592H245.948C245.98 126.965 246.081 127.28 246.252 127.536C246.433 127.792 246.662 127.989 246.94 128.128C247.217 128.256 247.51 128.32 247.82 128.32C248.204 128.32 248.561 128.229 248.892 128.048C249.233 127.867 249.468 127.621 249.596 127.312L251.772 127.92C251.558 128.357 251.254 128.747 250.86 129.088C250.476 129.419 250.017 129.68 249.484 129.872C248.961 130.064 248.38 130.16 247.74 130.16ZM245.884 125.024H249.532C249.489 124.672 249.388 124.368 249.228 124.112C249.068 123.845 248.854 123.643 248.588 123.504C248.321 123.355 248.028 123.28 247.708 123.28C247.377 123.28 247.078 123.355 246.812 123.504C246.556 123.643 246.348 123.845 246.188 124.112C246.028 124.368 245.926 124.672 245.884 125.024ZM266.66 130H264.1V125.28C264.1 124.736 263.999 124.336 263.796 124.08C263.593 123.824 263.332 123.696 263.012 123.696C262.671 123.696 262.335 123.835 262.004 124.112C261.673 124.389 261.439 124.747 261.3 125.184V130H258.74V125.28C258.74 124.725 258.639 124.325 258.436 124.08C258.233 123.824 257.972 123.696 257.652 123.696C257.321 123.696 256.991 123.835 256.66 124.112C256.329 124.389 256.089 124.747 255.94 125.184V130H253.38V121.6H255.684V123.008C255.993 122.507 256.409 122.123 256.932 121.856C257.465 121.579 258.084 121.44 258.788 121.44C259.481 121.44 260.015 121.605 260.388 121.936C260.761 122.256 261.001 122.635 261.108 123.072C261.428 122.549 261.849 122.149 262.372 121.872C262.905 121.584 263.503 121.44 264.164 121.44C264.697 121.44 265.129 121.541 265.46 121.744C265.791 121.936 266.041 122.192 266.212 122.512C266.383 122.832 266.5 123.179 266.564 123.552C266.628 123.915 266.66 124.272 266.66 124.624V130ZM268.253 126.976V121.6H270.813V126.416C270.813 126.928 270.914 127.323 271.117 127.6C271.32 127.867 271.608 128 271.981 128C272.216 128 272.44 127.963 272.653 127.888C272.866 127.803 273.074 127.669 273.277 127.488C273.48 127.307 273.661 127.072 273.821 126.784V121.6H276.381V127.152C276.381 127.408 276.418 127.589 276.493 127.696C276.578 127.792 276.722 127.851 276.925 127.872V130C276.69 130.043 276.482 130.075 276.301 130.096C276.13 130.117 275.976 130.128 275.837 130.128C275.389 130.128 275.032 130.037 274.765 129.856C274.498 129.664 274.333 129.397 274.269 129.056L274.221 128.544C273.837 129.099 273.357 129.509 272.781 129.776C272.216 130.032 271.581 130.16 270.877 130.16C270.024 130.16 269.373 129.888 268.925 129.344C268.477 128.8 268.253 128.011 268.253 126.976ZM277.836 127.488C277.836 126.933 277.991 126.448 278.3 126.032C278.61 125.616 279.036 125.291 279.58 125.056C280.124 124.811 280.748 124.688 281.452 124.688C281.794 124.688 282.13 124.72 282.46 124.784C282.791 124.837 283.079 124.917 283.324 125.024V124.656C283.324 124.197 283.186 123.845 282.908 123.6C282.631 123.355 282.21 123.232 281.644 123.232C281.175 123.232 280.732 123.312 280.316 123.472C279.911 123.632 279.479 123.861 279.02 124.16L278.252 122.528C278.807 122.165 279.383 121.893 279.98 121.712C280.588 121.531 281.228 121.44 281.9 121.44C283.159 121.44 284.135 121.744 284.828 122.352C285.532 122.949 285.884 123.819 285.884 124.96V127.152C285.884 127.408 285.922 127.589 285.996 127.696C286.082 127.792 286.226 127.851 286.428 127.872V130C286.215 130.043 286.012 130.075 285.82 130.096C285.639 130.117 285.479 130.128 285.34 130.128C284.86 130.128 284.492 130.032 284.236 129.84C283.991 129.648 283.836 129.387 283.772 129.056L283.724 128.688C283.351 129.168 282.903 129.536 282.38 129.792C281.868 130.037 281.33 130.16 280.764 130.16C280.21 130.16 279.708 130.043 279.26 129.808C278.823 129.573 278.476 129.253 278.22 128.848C277.964 128.443 277.836 127.989 277.836 127.488ZM282.924 127.808C283.042 127.712 283.138 127.605 283.212 127.488C283.287 127.371 283.324 127.259 283.324 127.152V126.4C283.111 126.315 282.871 126.251 282.604 126.208C282.348 126.155 282.108 126.128 281.884 126.128C281.415 126.128 281.026 126.235 280.716 126.448C280.407 126.651 280.252 126.923 280.252 127.264C280.252 127.456 280.306 127.632 280.412 127.792C280.519 127.952 280.663 128.08 280.844 128.176C281.036 128.272 281.26 128.32 281.516 128.32C281.772 128.32 282.028 128.272 282.284 128.176C282.54 128.08 282.754 127.957 282.924 127.808Z" fill="#FFE500"/>
<path d="M296.658 130.096C295.804 130.096 295.031 129.936 294.338 129.616C293.655 129.285 293.063 128.848 292.562 128.304C292.071 127.749 291.692 127.131 291.426 126.448C291.159 125.755 291.026 125.04 291.026 124.304C291.026 123.547 291.164 122.827 291.442 122.144C291.73 121.461 292.124 120.853 292.626 120.32C293.138 119.776 293.74 119.349 294.434 119.04C295.127 118.731 295.884 118.576 296.706 118.576C297.548 118.576 298.311 118.741 298.994 119.072C299.687 119.392 300.279 119.829 300.77 120.384C301.271 120.939 301.655 121.563 301.922 122.256C302.188 122.939 302.322 123.637 302.322 124.352C302.322 125.109 302.183 125.829 301.906 126.512C301.628 127.195 301.234 127.808 300.722 128.352C300.21 128.885 299.607 129.312 298.914 129.632C298.231 129.941 297.479 130.096 296.658 130.096ZM293.698 124.336C293.698 124.773 293.762 125.2 293.89 125.616C294.018 126.021 294.204 126.384 294.45 126.704C294.706 127.024 295.02 127.28 295.394 127.472C295.767 127.664 296.194 127.76 296.674 127.76C297.175 127.76 297.612 127.664 297.986 127.472C298.359 127.269 298.668 127.003 298.914 126.672C299.159 126.341 299.34 125.973 299.458 125.568C299.586 125.152 299.65 124.731 299.65 124.304C299.65 123.867 299.586 123.445 299.458 123.04C299.33 122.635 299.138 122.272 298.882 121.952C298.626 121.621 298.311 121.365 297.938 121.184C297.564 121.003 297.143 120.912 296.674 120.912C296.172 120.912 295.735 121.008 295.362 121.2C294.999 121.392 294.69 121.653 294.434 121.984C294.188 122.304 294.002 122.672 293.874 123.088C293.756 123.493 293.698 123.909 293.698 124.336ZM308.864 130.16C308.235 130.16 307.685 130.027 307.216 129.76C306.747 129.483 306.379 129.109 306.112 128.64V133.408H303.552V121.6H305.776V122.96C306.085 122.48 306.475 122.107 306.944 121.84C307.413 121.573 307.963 121.44 308.592 121.44C309.157 121.44 309.675 121.552 310.144 121.776C310.624 122 311.04 122.309 311.392 122.704C311.744 123.099 312.016 123.557 312.208 124.08C312.4 124.603 312.496 125.168 312.496 125.776C312.496 126.608 312.341 127.355 312.032 128.016C311.723 128.677 311.291 129.2 310.736 129.584C310.192 129.968 309.568 130.16 308.864 130.16ZM308 128C308.277 128 308.528 127.941 308.752 127.824C308.987 127.696 309.189 127.531 309.36 127.328C309.531 127.125 309.659 126.891 309.744 126.624C309.84 126.347 309.888 126.059 309.888 125.76C309.888 125.451 309.835 125.168 309.728 124.912C309.632 124.656 309.493 124.432 309.312 124.24C309.131 124.037 308.917 123.883 308.672 123.776C308.427 123.669 308.16 123.616 307.872 123.616C307.701 123.616 307.525 123.643 307.344 123.696C307.173 123.749 307.008 123.829 306.848 123.936C306.699 124.032 306.56 124.149 306.432 124.288C306.304 124.427 306.197 124.587 306.112 124.768V126.496C306.229 126.784 306.384 127.04 306.576 127.264C306.768 127.488 306.987 127.669 307.232 127.808C307.477 127.936 307.733 128 308 128ZM317.002 130.16C316.288 130.16 315.589 130.043 314.906 129.808C314.224 129.573 313.648 129.227 313.178 128.768L314.058 127.152C314.57 127.525 315.066 127.808 315.546 128C316.037 128.192 316.496 128.288 316.922 128.288C317.253 128.288 317.509 128.235 317.69 128.128C317.872 128.021 317.962 127.856 317.962 127.632C317.962 127.472 317.909 127.349 317.802 127.264C317.696 127.168 317.53 127.083 317.306 127.008C317.093 126.933 316.826 126.853 316.506 126.768C315.866 126.555 315.333 126.347 314.906 126.144C314.48 125.941 314.16 125.696 313.946 125.408C313.733 125.109 313.626 124.725 313.626 124.256C313.626 123.691 313.765 123.2 314.042 122.784C314.33 122.357 314.736 122.027 315.258 121.792C315.781 121.557 316.405 121.44 317.13 121.44C317.706 121.44 318.266 121.531 318.81 121.712C319.365 121.893 319.882 122.197 320.362 122.624L319.37 124.224C318.89 123.893 318.464 123.653 318.09 123.504C317.717 123.355 317.354 123.28 317.002 123.28C316.821 123.28 316.656 123.301 316.506 123.344C316.357 123.387 316.234 123.461 316.138 123.568C316.053 123.664 316.01 123.792 316.01 123.952C316.01 124.112 316.053 124.24 316.138 124.336C316.234 124.432 316.378 124.517 316.57 124.592C316.773 124.656 317.024 124.736 317.322 124.832C318.016 125.035 318.592 125.243 319.05 125.456C319.509 125.659 319.85 125.915 320.074 126.224C320.309 126.523 320.426 126.923 320.426 127.424C320.426 128.277 320.117 128.949 319.498 129.44C318.89 129.92 318.058 130.16 317.002 130.16ZM321.739 130V121.6H324.299V130H321.739ZM321.739 120.64V118.32H324.299V120.64H321.739ZM329.994 130V118.64H334.842C335.386 118.64 335.882 118.752 336.33 118.976C336.789 119.189 337.184 119.483 337.514 119.856C337.845 120.219 338.101 120.629 338.282 121.088C338.464 121.547 338.554 122.016 338.554 122.496C338.554 123.147 338.4 123.765 338.09 124.352C337.792 124.939 337.37 125.419 336.826 125.792C336.293 126.155 335.658 126.336 334.922 126.336H332.618V130H329.994ZM332.618 124.048H334.762C334.965 124.048 335.152 123.989 335.322 123.872C335.493 123.755 335.632 123.579 335.738 123.344C335.845 123.109 335.898 122.821 335.898 122.48C335.898 122.128 335.834 121.84 335.706 121.616C335.589 121.381 335.434 121.211 335.242 121.104C335.061 120.997 334.869 120.944 334.666 120.944H332.618V124.048ZM343.599 130.16C342.884 130.16 342.25 130.048 341.695 129.824C341.14 129.589 340.666 129.275 340.271 128.88C339.887 128.485 339.594 128.032 339.391 127.52C339.188 126.997 339.087 126.453 339.087 125.888C339.087 125.077 339.263 124.341 339.615 123.68C339.978 123.008 340.495 122.469 341.167 122.064C341.839 121.648 342.65 121.44 343.599 121.44C344.548 121.44 345.354 121.643 346.015 122.048C346.687 122.453 347.199 122.987 347.551 123.648C347.903 124.299 348.079 125.008 348.079 125.776C348.079 125.925 348.068 126.075 348.047 126.224C348.036 126.363 348.026 126.485 348.015 126.592H341.807C341.839 126.965 341.94 127.28 342.111 127.536C342.292 127.792 342.522 127.989 342.799 128.128C343.076 128.256 343.37 128.32 343.679 128.32C344.063 128.32 344.42 128.229 344.751 128.048C345.092 127.867 345.327 127.621 345.455 127.312L347.631 127.92C347.418 128.357 347.114 128.747 346.719 129.088C346.335 129.419 345.876 129.68 345.343 129.872C344.82 130.064 344.239 130.16 343.599 130.16ZM341.743 125.024H345.391C345.348 124.672 345.247 124.368 345.087 124.112C344.927 123.845 344.714 123.643 344.447 123.504C344.18 123.355 343.887 123.28 343.567 123.28C343.236 123.28 342.938 123.355 342.671 123.504C342.415 123.643 342.207 123.845 342.047 124.112C341.887 124.368 341.786 124.672 341.743 125.024ZM357.335 130H354.775V125.28C354.775 124.725 354.669 124.325 354.455 124.08C354.253 123.824 353.981 123.696 353.639 123.696C353.405 123.696 353.165 123.76 352.919 123.888C352.674 124.016 352.45 124.192 352.247 124.416C352.055 124.64 351.906 124.896 351.799 125.184V130H349.239V121.6H351.543V123.008C351.757 122.677 352.023 122.395 352.343 122.16C352.663 121.925 353.031 121.749 353.447 121.632C353.863 121.504 354.317 121.44 354.807 121.44C355.351 121.44 355.789 121.541 356.119 121.744C356.461 121.936 356.717 122.192 356.887 122.512C357.069 122.832 357.186 123.179 357.239 123.552C357.303 123.915 357.335 124.272 357.335 124.624V130ZM362.3 130.032C361.746 130.032 361.239 129.925 360.78 129.712C360.322 129.488 359.927 129.184 359.596 128.8C359.276 128.405 359.026 127.952 358.844 127.44C358.663 126.928 358.572 126.379 358.572 125.792C358.572 125.173 358.668 124.603 358.86 124.08C359.052 123.557 359.319 123.099 359.66 122.704C360.012 122.299 360.423 121.989 360.892 121.776C361.372 121.552 361.9 121.44 362.476 121.44C363.106 121.44 363.66 121.579 364.14 121.856C364.62 122.123 365.004 122.496 365.292 122.976V121.6H367.516V129.424C367.516 130.277 367.308 131.013 366.892 131.632C366.487 132.251 365.916 132.725 365.18 133.056C364.455 133.397 363.612 133.568 362.652 133.568C361.756 133.568 360.983 133.419 360.332 133.12C359.692 132.832 359.132 132.421 358.652 131.888L360.028 130.496C360.338 130.848 360.722 131.125 361.18 131.328C361.639 131.541 362.13 131.648 362.652 131.648C363.068 131.648 363.452 131.573 363.804 131.424C364.156 131.275 364.434 131.035 364.636 130.704C364.85 130.373 364.956 129.947 364.956 129.424V128.608C364.7 129.067 364.327 129.419 363.836 129.664C363.356 129.909 362.844 130.032 362.3 130.032ZM363.18 128C363.383 128 363.57 127.973 363.74 127.92C363.922 127.856 364.087 127.776 364.236 127.68C364.386 127.573 364.524 127.451 364.652 127.312C364.78 127.163 364.882 127.003 364.956 126.832V125.072C364.85 124.773 364.695 124.517 364.492 124.304C364.29 124.08 364.066 123.909 363.82 123.792C363.575 123.675 363.319 123.616 363.052 123.616C362.786 123.616 362.535 123.675 362.3 123.792C362.066 123.909 361.863 124.08 361.692 124.304C361.532 124.517 361.404 124.757 361.308 125.024C361.223 125.291 361.18 125.568 361.18 125.856C361.18 126.165 361.228 126.448 361.324 126.704C361.431 126.96 361.575 127.189 361.756 127.392C361.938 127.584 362.151 127.733 362.396 127.84C362.642 127.947 362.903 128 363.18 128ZM369.271 130V121.6H371.831V130H369.271ZM369.271 120.64V118.32H371.831V120.64H369.271ZM378.911 123.792C378.292 123.792 377.732 123.893 377.231 124.096C376.73 124.288 376.367 124.576 376.143 124.96V130H373.583V121.6H375.935V123.296C376.223 122.731 376.596 122.288 377.055 121.968C377.514 121.648 377.994 121.483 378.495 121.472C378.612 121.472 378.698 121.472 378.751 121.472C378.815 121.472 378.868 121.477 378.911 121.488V123.792ZM379.989 130V121.6H382.549V130H379.989ZM379.989 120.64V118.32H382.549V120.64H379.989ZM397.582 130H395.022V125.28C395.022 124.736 394.921 124.336 394.718 124.08C394.515 123.824 394.254 123.696 393.934 123.696C393.593 123.696 393.257 123.835 392.926 124.112C392.595 124.389 392.361 124.747 392.222 125.184V130H389.662V125.28C389.662 124.725 389.561 124.325 389.358 124.08C389.155 123.824 388.894 123.696 388.574 123.696C388.243 123.696 387.913 123.835 387.582 124.112C387.251 124.389 387.011 124.747 386.862 125.184V130H384.302V121.6H386.606V123.008C386.915 122.507 387.331 122.123 387.854 121.856C388.387 121.579 389.006 121.44 389.71 121.44C390.403 121.44 390.937 121.605 391.31 121.936C391.683 122.256 391.923 122.635 392.03 123.072C392.35 122.549 392.771 122.149 393.294 121.872C393.827 121.584 394.425 121.44 395.086 121.44C395.619 121.44 396.051 121.541 396.382 121.744C396.713 121.936 396.963 122.192 397.134 122.512C397.305 122.832 397.422 123.179 397.486 123.552C397.55 123.915 397.582 124.272 397.582 124.624V130ZM398.727 127.488C398.727 126.933 398.882 126.448 399.191 126.032C399.5 125.616 399.927 125.291 400.471 125.056C401.015 124.811 401.639 124.688 402.343 124.688C402.684 124.688 403.02 124.72 403.351 124.784C403.682 124.837 403.97 124.917 404.215 125.024V124.656C404.215 124.197 404.076 123.845 403.799 123.6C403.522 123.355 403.1 123.232 402.535 123.232C402.066 123.232 401.623 123.312 401.207 123.472C400.802 123.632 400.37 123.861 399.911 124.16L399.143 122.528C399.698 122.165 400.274 121.893 400.871 121.712C401.479 121.531 402.119 121.44 402.791 121.44C404.05 121.44 405.026 121.744 405.719 122.352C406.423 122.949 406.775 123.819 406.775 124.96V127.152C406.775 127.408 406.812 127.589 406.887 127.696C406.972 127.792 407.116 127.851 407.319 127.872V130C407.106 130.043 406.903 130.075 406.711 130.096C406.53 130.117 406.37 130.128 406.231 130.128C405.751 130.128 405.383 130.032 405.127 129.84C404.882 129.648 404.727 129.387 404.663 129.056L404.615 128.688C404.242 129.168 403.794 129.536 403.271 129.792C402.759 130.037 402.22 130.16 401.655 130.16C401.1 130.16 400.599 130.043 400.151 129.808C399.714 129.573 399.367 129.253 399.111 128.848C398.855 128.443 398.727 127.989 398.727 127.488ZM403.815 127.808C403.932 127.712 404.028 127.605 404.103 127.488C404.178 127.371 404.215 127.259 404.215 127.152V126.4C404.002 126.315 403.762 126.251 403.495 126.208C403.239 126.155 402.999 126.128 402.775 126.128C402.306 126.128 401.916 126.235 401.607 126.448C401.298 126.651 401.143 126.923 401.143 127.264C401.143 127.456 401.196 127.632 401.303 127.792C401.41 127.952 401.554 128.08 401.735 128.176C401.927 128.272 402.151 128.32 402.407 128.32C402.663 128.32 402.919 128.272 403.175 128.176C403.431 128.08 403.644 127.957 403.815 127.808ZM416.726 130H414.166V125.28C414.166 124.725 414.059 124.325 413.846 124.08C413.643 123.824 413.371 123.696 413.03 123.696C412.795 123.696 412.555 123.76 412.31 123.888C412.065 124.016 411.841 124.192 411.638 124.416C411.446 124.64 411.297 124.896 411.19 125.184V130H408.63V121.6H410.934V123.008C411.147 122.677 411.414 122.395 411.734 122.16C412.054 121.925 412.422 121.749 412.838 121.632C413.254 121.504 413.707 121.44 414.198 121.44C414.742 121.44 415.179 121.541 415.51 121.744C415.851 121.936 416.107 122.192 416.278 122.512C416.459 122.832 416.577 123.179 416.63 123.552C416.694 123.915 416.726 124.272 416.726 124.624V130Z" fill="white"/>
<path d="M234.301 57.3389V64.6641C234.013 65.0111 233.569 65.3877 232.968 65.7939C232.367 66.1917 231.592 66.5345 230.645 66.8223C229.697 67.11 228.55 67.2539 227.204 67.2539C226.011 67.2539 224.923 67.0592 223.941 66.6699C222.96 66.2721 222.113 65.6924 221.402 64.9307C220.7 64.1689 220.158 63.238 219.777 62.1377C219.396 61.029 219.206 59.7637 219.206 58.3418V57.1865C219.206 55.7646 219.388 54.4993 219.752 53.3906C220.124 52.2819 220.653 51.3467 221.339 50.585C222.024 49.8232 222.841 49.2435 223.789 48.8457C224.737 48.4479 225.791 48.249 226.95 48.249C228.558 48.249 229.879 48.5114 230.911 49.0361C231.944 49.5524 232.731 50.2718 233.272 51.1943C233.823 52.1084 234.161 53.1579 234.288 54.3428H230.594C230.501 53.7165 230.323 53.1706 230.061 52.7051C229.798 52.2396 229.422 51.8757 228.931 51.6133C228.448 51.3509 227.822 51.2197 227.052 51.2197C226.417 51.2197 225.85 51.3509 225.351 51.6133C224.86 51.8672 224.445 52.2438 224.106 52.7432C223.768 53.2425 223.51 53.8604 223.332 54.5967C223.154 55.333 223.065 56.1878 223.065 57.1611V58.3418C223.065 59.3066 223.159 60.1615 223.345 60.9062C223.531 61.6426 223.806 62.2646 224.17 62.7725C224.542 63.2718 224.999 63.6484 225.541 63.9023C226.083 64.1562 226.713 64.2832 227.433 64.2832C228.034 64.2832 228.533 64.2324 228.931 64.1309C229.337 64.0293 229.663 63.9066 229.908 63.7627C230.162 63.6104 230.357 63.4665 230.492 63.3311V60.0557H227.014V57.3389H234.301ZM237.373 48.5156H244.267C245.68 48.5156 246.895 48.7272 247.91 49.1504C248.934 49.5736 249.721 50.1999 250.271 51.0293C250.822 51.8587 251.097 52.8786 251.097 54.0889C251.097 55.0791 250.927 55.9297 250.589 56.6406C250.259 57.3431 249.789 57.9313 249.18 58.4053C248.579 58.8708 247.872 59.2432 247.06 59.5225L245.854 60.1572H239.861L239.836 57.1865H244.292C244.961 57.1865 245.515 57.068 245.955 56.8311C246.395 56.5941 246.725 56.264 246.945 55.8408C247.174 55.4176 247.288 54.9268 247.288 54.3682C247.288 53.7757 247.178 53.2637 246.958 52.832C246.738 52.4004 246.404 52.0703 245.955 51.8418C245.507 51.6133 244.944 51.499 244.267 51.499H241.182V67H237.373V48.5156ZM247.707 67L243.492 58.7607L247.517 58.7354L251.782 66.8223V67H247.707ZM261.545 51.6768L256.518 67H252.468L259.336 48.5156H261.913L261.545 51.6768ZM265.722 67L260.682 51.6768L260.275 48.5156H262.878L269.784 67H265.722ZM265.493 60.1191V63.1025H255.73V60.1191H265.493ZM278.188 48.5156V67H274.393V48.5156H278.188ZM283.876 48.5156V51.499H268.794V48.5156H283.876ZM290.097 48.5156V67H286.301V48.5156H290.097ZM303.287 62.1631C303.287 61.833 303.236 61.5368 303.135 61.2744C303.042 61.0036 302.864 60.7581 302.602 60.5381C302.339 60.3096 301.971 60.0853 301.497 59.8652C301.023 59.6452 300.41 59.4167 299.656 59.1797C298.818 58.9089 298.023 58.6042 297.27 58.2656C296.525 57.9271 295.865 57.5335 295.289 57.085C294.722 56.6279 294.273 56.099 293.943 55.498C293.622 54.8971 293.461 54.1989 293.461 53.4033C293.461 52.6331 293.63 51.9349 293.969 51.3086C294.307 50.6738 294.781 50.1322 295.391 49.6836C296 49.2266 296.719 48.8753 297.549 48.6299C298.387 48.3844 299.305 48.2617 300.304 48.2617C301.666 48.2617 302.855 48.5072 303.871 48.998C304.887 49.4889 305.674 50.1618 306.232 51.0166C306.799 51.8714 307.083 52.849 307.083 53.9492H303.3C303.3 53.4076 303.186 52.9336 302.957 52.5273C302.737 52.1126 302.398 51.7868 301.941 51.5498C301.493 51.3128 300.926 51.1943 300.24 51.1943C299.58 51.1943 299.03 51.2959 298.59 51.499C298.15 51.6937 297.82 51.9603 297.6 52.2988C297.38 52.6289 297.27 53.0013 297.27 53.416C297.27 53.7292 297.346 54.0127 297.498 54.2666C297.659 54.5205 297.896 54.7575 298.209 54.9775C298.522 55.1976 298.907 55.4049 299.364 55.5996C299.821 55.7943 300.35 55.9847 300.951 56.1709C301.958 56.4756 302.843 56.8184 303.604 57.1992C304.375 57.5801 305.018 58.0075 305.534 58.4814C306.05 58.9554 306.44 59.4928 306.702 60.0938C306.965 60.6947 307.096 61.376 307.096 62.1377C307.096 62.9417 306.939 63.6611 306.626 64.2959C306.313 64.9307 305.86 65.4681 305.268 65.9082C304.675 66.3483 303.968 66.6826 303.147 66.9111C302.326 67.1396 301.408 67.2539 300.393 67.2539C299.479 67.2539 298.577 67.1354 297.688 66.8984C296.8 66.653 295.992 66.2848 295.264 65.7939C294.544 65.3031 293.969 64.6768 293.537 63.915C293.105 63.1533 292.89 62.252 292.89 61.2109H296.711C296.711 61.7865 296.8 62.2731 296.978 62.6709C297.155 63.0687 297.405 63.3903 297.727 63.6357C298.057 63.8812 298.446 64.0589 298.895 64.1689C299.352 64.279 299.851 64.334 300.393 64.334C301.053 64.334 301.594 64.2409 302.018 64.0547C302.449 63.8685 302.767 63.6104 302.97 63.2803C303.181 62.9502 303.287 62.5778 303.287 62.1631ZM234.834 87.3262V88.2021C234.834 89.6071 234.644 90.8682 234.263 91.9854C233.882 93.1025 233.344 94.0547 232.65 94.8418C231.956 95.6204 231.127 96.2171 230.162 96.6318C229.206 97.0465 228.144 97.2539 226.976 97.2539C225.816 97.2539 224.754 97.0465 223.789 96.6318C222.833 96.2171 222.003 95.6204 221.301 94.8418C220.598 94.0547 220.052 93.1025 219.663 91.9854C219.282 90.8682 219.092 89.6071 219.092 88.2021V87.3262C219.092 85.9128 219.282 84.6517 219.663 83.543C220.044 82.4258 220.581 81.4736 221.275 80.6865C221.978 79.8994 222.807 79.2985 223.764 78.8838C224.729 78.4691 225.791 78.2617 226.95 78.2617C228.118 78.2617 229.18 78.4691 230.137 78.8838C231.102 79.2985 231.931 79.8994 232.625 80.6865C233.327 81.4736 233.869 82.4258 234.25 83.543C234.639 84.6517 234.834 85.9128 234.834 87.3262ZM230.987 88.2021V87.3008C230.987 86.319 230.898 85.4557 230.721 84.7109C230.543 83.9661 230.281 83.3398 229.934 82.832C229.587 82.3242 229.163 81.9434 228.664 81.6895C228.165 81.4271 227.593 81.2959 226.95 81.2959C226.307 81.2959 225.736 81.4271 225.236 81.6895C224.745 81.9434 224.326 82.3242 223.979 82.832C223.641 83.3398 223.383 83.9661 223.205 84.7109C223.027 85.4557 222.938 86.319 222.938 87.3008V88.2021C222.938 89.1755 223.027 90.0387 223.205 90.792C223.383 91.5368 223.645 92.1673 223.992 92.6836C224.339 93.1914 224.762 93.5765 225.262 93.8389C225.761 94.1012 226.332 94.2324 226.976 94.2324C227.619 94.2324 228.19 94.1012 228.689 93.8389C229.189 93.5765 229.608 93.1914 229.946 92.6836C230.285 92.1673 230.543 91.5368 230.721 90.792C230.898 90.0387 230.987 89.1755 230.987 88.2021ZM252.62 78.5156V97H248.812L241.385 84.6094V97H237.576V78.5156H241.385L248.824 90.9189V78.5156H252.62ZM270.584 87.3389V94.6641C270.296 95.0111 269.852 95.3877 269.251 95.7939C268.65 96.1917 267.876 96.5345 266.928 96.8223C265.98 97.11 264.833 97.2539 263.487 97.2539C262.294 97.2539 261.206 97.0592 260.225 96.6699C259.243 96.2721 258.396 95.6924 257.686 94.9307C256.983 94.1689 256.441 93.238 256.061 92.1377C255.68 91.029 255.489 89.7637 255.489 88.3418V87.1865C255.489 85.7646 255.671 84.4993 256.035 83.3906C256.408 82.2819 256.937 81.3467 257.622 80.585C258.308 79.8232 259.124 79.2435 260.072 78.8457C261.02 78.4479 262.074 78.249 263.233 78.249C264.841 78.249 266.162 78.5114 267.194 79.0361C268.227 79.5524 269.014 80.2718 269.556 81.1943C270.106 82.1084 270.444 83.1579 270.571 84.3428H266.877C266.784 83.7165 266.606 83.1706 266.344 82.7051C266.081 82.2396 265.705 81.8757 265.214 81.6133C264.731 81.3509 264.105 81.2197 263.335 81.2197C262.7 81.2197 262.133 81.3509 261.634 81.6133C261.143 81.8672 260.728 82.2438 260.39 82.7432C260.051 83.2425 259.793 83.8604 259.615 84.5967C259.438 85.333 259.349 86.1878 259.349 87.1611V88.3418C259.349 89.3066 259.442 90.1615 259.628 90.9062C259.814 91.6426 260.089 92.2646 260.453 92.7725C260.826 93.2718 261.283 93.6484 261.824 93.9023C262.366 94.1562 262.996 94.2832 263.716 94.2832C264.317 94.2832 264.816 94.2324 265.214 94.1309C265.62 94.0293 265.946 93.9066 266.191 93.7627C266.445 93.6104 266.64 93.4665 266.775 93.3311V90.0557H263.297V87.3389H270.584ZM277.465 78.5156V97H273.656V78.5156H277.465ZM288.535 78.5156L281.21 87.6436L276.982 92.1885L276.297 88.583L279.153 84.6729L283.863 78.5156H288.535ZM284.206 97L278.76 88.4561L281.578 86.0947L288.713 97H284.206ZM294.235 78.5156V97H290.439V78.5156H294.235ZM297.803 78.5156H304.696C306.11 78.5156 307.324 78.7272 308.34 79.1504C309.364 79.5736 310.151 80.1999 310.701 81.0293C311.251 81.8587 311.526 82.8786 311.526 84.0889C311.526 85.0791 311.357 85.9297 311.019 86.6406C310.688 87.3431 310.219 87.9313 309.609 88.4053C309.008 88.8708 308.302 89.2432 307.489 89.5225L306.283 90.1572H300.291L300.266 87.1865H304.722C305.39 87.1865 305.945 87.068 306.385 86.8311C306.825 86.5941 307.155 86.264 307.375 85.8408C307.604 85.4176 307.718 84.9268 307.718 84.3682C307.718 83.7757 307.608 83.2637 307.388 82.832C307.168 82.4004 306.833 82.0703 306.385 81.8418C305.936 81.6133 305.373 81.499 304.696 81.499H301.611V97H297.803V78.5156ZM308.137 97L303.922 88.7607L307.946 88.7354L312.212 96.8223V97H308.137Z" fill="white"/>
<path d="M317.316 47.6562H335.346C339.042 47.6562 342.219 48.2096 344.875 49.3164C347.553 50.4232 349.612 52.0612 351.051 54.2305C352.49 56.3997 353.209 59.0671 353.209 62.2324C353.209 64.8223 352.766 67.0469 351.881 68.9062C351.018 70.7435 349.789 72.2819 348.195 73.5215C346.624 74.7389 344.775 75.7129 342.65 76.4434L339.496 78.1035H323.824L323.758 70.334H335.412C337.161 70.334 338.611 70.0241 339.762 69.4043C340.913 68.7845 341.776 67.9212 342.352 66.8145C342.949 65.7077 343.248 64.4238 343.248 62.9629C343.248 61.4134 342.96 60.0742 342.385 58.9453C341.809 57.8164 340.935 56.9531 339.762 56.3555C338.589 55.7578 337.117 55.459 335.346 55.459H327.277V96H317.316V47.6562ZM344.344 96L333.32 74.4512L343.846 74.3848L355.002 95.5352V96H344.344ZM379.705 78.7676H367.387V70.998H379.705C381.609 70.998 383.158 70.6882 384.354 70.0684C385.549 69.4264 386.423 68.541 386.977 67.4121C387.53 66.2832 387.807 65.0104 387.807 63.5938C387.807 62.1549 387.53 60.8158 386.977 59.5762C386.423 58.3366 385.549 57.3405 384.354 56.5879C383.158 55.8353 381.609 55.459 379.705 55.459H370.84V96H360.879V47.6562H379.705C383.49 47.6562 386.733 48.3424 389.434 49.7148C392.156 51.0651 394.237 52.9355 395.676 55.3262C397.115 57.7168 397.834 60.4505 397.834 63.5273C397.834 66.6484 397.115 69.349 395.676 71.6289C394.237 73.9089 392.156 75.6686 389.434 76.9082C386.733 78.1478 383.49 78.7676 379.705 78.7676ZM436.25 67.5781V75.9453C436.25 79.5755 435.863 82.7077 435.088 85.3418C434.313 87.9538 433.195 90.1009 431.734 91.7832C430.296 93.4434 428.58 94.6719 426.588 95.4688C424.596 96.2656 422.382 96.6641 419.947 96.6641C417.999 96.6641 416.184 96.4206 414.502 95.9336C412.82 95.4245 411.303 94.6387 409.953 93.5762C408.625 92.5137 407.474 91.1745 406.5 89.5586C405.548 87.9206 404.818 85.9727 404.309 83.7148C403.799 81.457 403.545 78.8672 403.545 75.9453V67.5781C403.545 63.9479 403.932 60.8379 404.707 58.248C405.504 55.6361 406.622 53.5 408.061 51.8398C409.521 50.1797 411.248 48.9622 413.24 48.1875C415.232 47.3906 417.446 46.9922 419.881 46.9922C421.829 46.9922 423.633 47.2467 425.293 47.7559C426.975 48.2428 428.492 49.0065 429.842 50.0469C431.192 51.0872 432.343 52.4264 433.295 54.0645C434.247 55.6803 434.977 57.6172 435.486 59.875C435.995 62.1107 436.25 64.6784 436.25 67.5781ZM426.654 77.207V66.2832C426.654 64.5345 426.555 63.0072 426.355 61.7012C426.178 60.3952 425.902 59.2884 425.525 58.3809C425.149 57.4512 424.684 56.6986 424.131 56.123C423.577 55.5475 422.947 55.127 422.238 54.8613C421.53 54.5957 420.744 54.4629 419.881 54.4629C418.796 54.4629 417.833 54.6732 416.992 55.0938C416.173 55.5143 415.476 56.1895 414.9 57.1191C414.325 58.0267 413.882 59.2441 413.572 60.7715C413.285 62.2767 413.141 64.1139 413.141 66.2832V77.207C413.141 78.9557 413.229 80.4941 413.406 81.8223C413.605 83.1504 413.893 84.2904 414.27 85.2422C414.668 86.1719 415.133 86.9355 415.664 87.5332C416.217 88.1087 416.848 88.5293 417.557 88.7949C418.287 89.0605 419.084 89.1934 419.947 89.1934C421.01 89.1934 421.951 88.9831 422.77 88.5625C423.611 88.1198 424.319 87.4336 424.895 86.5039C425.492 85.5521 425.935 84.3125 426.223 82.7852C426.51 81.2578 426.654 79.3984 426.654 77.207Z" fill="#FFE600"/>
<defs>
<linearGradient id="paint0_linear_300_88" x1="329" y1="0" x2="329" y2="180" gradientUnits="userSpaceOnUse">
<stop stop-color="#0091FF"/>
<stop offset="1" stop-color="#50F090"/>
</linearGradient>
</defs>
</svg>
