<svg width="428" height="180" viewBox="0 0 428 180" fill="none" xmlns="http://www.w3.org/2000/svg">
<rect width="428" height="180" fill="url(#paint0_linear_242_403)"/>
<line y1="64.8" x2="48.8846" y2="64.8" stroke="#FFE500" stroke-width="2"/>
<line x1="379.115" y1="159.2" x2="428" y2="159.2" stroke="#FFE500" stroke-width="2"/>
<rect x="400.508" y="130.04" width="27.9232" height="3.04004" rx="1.52002" transform="rotate(-180 400.508 130.04)" fill="#E2E0E0" fill-opacity="0.5"/>
<ellipse cx="369.094" cy="132.32" rx="2.09424" ry="2.28003" transform="rotate(-180 369.094 132.32)" fill="#E2E0E0" fill-opacity="0.5"/>
<rect x="26" y="94.8" width="33.9689" height="3.2" rx="1.6" fill="#E2E2E2" fill-opacity="0.6"/>
<ellipse cx="64.215" cy="92.4" rx="2.54767" ry="2.4" fill="#E2E2E2" fill-opacity="0.6"/>
<path d="M34.7447 138H0V153H36.8293C38.914 153 38.914 150 36.8293 150H24.3213C22.9315 150 22.9315 147 24.3213 147H28.9954C30.5753 147 30.5753 144 28.9954 144H21.5417C20.1519 144 20.1519 141 21.5417 141H34.7447C36.0626 141 36.0626 138 34.7447 138Z" fill="#007398" fill-opacity="0.7"/>
<rect x="37.2411" y="138" width="5.75893" height="3.26087" rx="1.63043" fill="#007398" fill-opacity="0.7"/>
<rect x="31.0982" y="143.87" width="5.75893" height="3.26087" rx="1.63043" fill="#007398" fill-opacity="0.7"/>
<path d="M397.295 49L428 49V33.4L395.453 33.4C393.611 33.4 393.611 36.52 395.453 36.52H406.507C407.735 36.52 407.735 39.64 406.507 39.64H402.376C400.98 39.64 400.98 42.76 402.376 42.76H408.963C410.191 42.76 410.191 45.88 408.963 45.88H397.295C396.131 45.88 396.131 49 397.295 49Z" fill="#04FFF0" fill-opacity="0.7"/>
<rect x="395.089" y="49" width="5.08929" height="3.39129" rx="1.69565" transform="rotate(-180 395.089 49)" fill="#04FFF0" fill-opacity="0.7"/>
<rect x="400.518" y="42.8958" width="5.08929" height="3.39129" rx="1.69565" transform="rotate(-180 400.518 42.8958)" fill="#04FFF0" fill-opacity="0.7"/>
<rect x="141" y="125" width="140" height="25" rx="10" fill="#007398"/>
<path d="M152.434 135.478C152.412 135.441 152.335 135.386 152.203 135.313C152.071 135.232 151.906 135.148 151.708 135.06C151.51 134.972 151.294 134.895 151.059 134.829C150.824 134.763 150.59 134.73 150.355 134.73C150.047 134.73 149.809 134.785 149.64 134.895C149.471 134.998 149.387 135.159 149.387 135.379C149.387 135.555 149.449 135.694 149.574 135.797C149.706 135.9 149.893 135.991 150.135 136.072C150.377 136.145 150.674 136.233 151.026 136.336C151.525 136.468 151.957 136.629 152.324 136.82C152.691 137.003 152.969 137.242 153.16 137.535C153.358 137.828 153.457 138.217 153.457 138.701C153.457 139.141 153.376 139.515 153.215 139.823C153.054 140.124 152.834 140.369 152.555 140.56C152.284 140.743 151.972 140.879 151.62 140.967C151.268 141.048 150.905 141.088 150.531 141.088C150.15 141.088 149.757 141.051 149.354 140.978C148.958 140.897 148.577 140.787 148.21 140.648C147.843 140.501 147.506 140.325 147.198 140.12L147.99 138.547C148.019 138.584 148.115 138.653 148.276 138.756C148.437 138.851 148.635 138.954 148.87 139.064C149.112 139.167 149.38 139.258 149.673 139.339C149.966 139.42 150.263 139.46 150.564 139.46C150.887 139.46 151.125 139.409 151.279 139.306C151.44 139.203 151.521 139.06 151.521 138.877C151.521 138.679 151.437 138.525 151.268 138.415C151.107 138.305 150.883 138.206 150.597 138.118C150.318 138.03 149.996 137.931 149.629 137.821C149.152 137.674 148.756 137.509 148.441 137.326C148.133 137.143 147.902 136.919 147.748 136.655C147.601 136.391 147.528 136.061 147.528 135.665C147.528 135.115 147.656 134.653 147.913 134.279C148.177 133.898 148.529 133.612 148.969 133.421C149.409 133.223 149.889 133.124 150.41 133.124C150.777 133.124 151.129 133.168 151.466 133.256C151.811 133.344 152.13 133.454 152.423 133.586C152.724 133.718 152.991 133.85 153.226 133.982L152.434 135.478ZM157.134 141.11C156.642 141.11 156.206 141.033 155.825 140.879C155.443 140.718 155.117 140.501 154.846 140.23C154.582 139.959 154.38 139.647 154.241 139.295C154.101 138.936 154.032 138.562 154.032 138.173C154.032 137.616 154.153 137.11 154.395 136.655C154.644 136.193 155 135.823 155.462 135.544C155.924 135.258 156.481 135.115 157.134 135.115C157.786 135.115 158.34 135.254 158.795 135.533C159.257 135.812 159.609 136.178 159.851 136.633C160.093 137.08 160.214 137.568 160.214 138.096C160.214 138.199 160.206 138.301 160.192 138.404C160.184 138.499 160.177 138.584 160.17 138.657H155.902C155.924 138.914 155.993 139.13 156.111 139.306C156.235 139.482 156.393 139.618 156.584 139.713C156.774 139.801 156.976 139.845 157.189 139.845C157.453 139.845 157.698 139.783 157.926 139.658C158.16 139.533 158.322 139.365 158.41 139.152L159.906 139.57C159.759 139.871 159.55 140.138 159.279 140.373C159.015 140.6 158.699 140.78 158.333 140.912C157.973 141.044 157.574 141.11 157.134 141.11ZM155.858 137.579H158.366C158.336 137.337 158.267 137.128 158.157 136.952C158.047 136.769 157.9 136.629 157.717 136.534C157.533 136.431 157.332 136.38 157.112 136.38C156.884 136.38 156.679 136.431 156.496 136.534C156.32 136.629 156.177 136.769 156.067 136.952C155.957 137.128 155.887 137.337 155.858 137.579ZM170.141 141H168.381V137.755C168.381 137.381 168.312 137.106 168.172 136.93C168.033 136.754 167.853 136.666 167.633 136.666C167.399 136.666 167.168 136.761 166.94 136.952C166.713 137.143 166.552 137.388 166.456 137.689V141H164.696V137.755C164.696 137.374 164.627 137.099 164.487 136.93C164.348 136.754 164.168 136.666 163.948 136.666C163.721 136.666 163.494 136.761 163.266 136.952C163.039 137.143 162.874 137.388 162.771 137.689V141H161.011V135.225H162.595V136.193C162.808 135.848 163.094 135.584 163.453 135.401C163.82 135.21 164.245 135.115 164.729 135.115C165.206 135.115 165.573 135.229 165.829 135.456C166.086 135.676 166.251 135.936 166.324 136.237C166.544 135.878 166.834 135.603 167.193 135.412C167.56 135.214 167.971 135.115 168.425 135.115C168.792 135.115 169.089 135.185 169.316 135.324C169.544 135.456 169.716 135.632 169.833 135.852C169.951 136.072 170.031 136.31 170.075 136.567C170.119 136.816 170.141 137.062 170.141 137.304V141ZM171.237 138.921V135.225H172.997V138.536C172.997 138.888 173.066 139.159 173.206 139.35C173.345 139.533 173.543 139.625 173.8 139.625C173.961 139.625 174.115 139.599 174.262 139.548C174.408 139.489 174.551 139.398 174.691 139.273C174.83 139.148 174.955 138.987 175.065 138.789V135.225H176.825V139.042C176.825 139.218 176.85 139.343 176.902 139.416C176.96 139.482 177.059 139.522 177.199 139.537V141C177.037 141.029 176.894 141.051 176.77 141.066C176.652 141.081 176.546 141.088 176.451 141.088C176.143 141.088 175.897 141.026 175.714 140.901C175.53 140.769 175.417 140.586 175.373 140.351L175.34 139.999C175.076 140.38 174.746 140.663 174.35 140.846C173.961 141.022 173.525 141.11 173.041 141.11C172.454 141.11 172.007 140.923 171.699 140.549C171.391 140.175 171.237 139.632 171.237 138.921ZM177.825 139.273C177.825 138.892 177.931 138.558 178.144 138.272C178.357 137.986 178.65 137.762 179.024 137.601C179.398 137.432 179.827 137.348 180.311 137.348C180.546 137.348 180.777 137.37 181.004 137.414C181.231 137.451 181.429 137.506 181.598 137.579V137.326C181.598 137.011 181.503 136.769 181.312 136.6C181.121 136.431 180.832 136.347 180.443 136.347C180.12 136.347 179.816 136.402 179.53 136.512C179.251 136.622 178.954 136.78 178.639 136.985L178.111 135.863C178.492 135.614 178.888 135.427 179.299 135.302C179.717 135.177 180.157 135.115 180.619 135.115C181.484 135.115 182.155 135.324 182.632 135.742C183.116 136.153 183.358 136.75 183.358 137.535V139.042C183.358 139.218 183.384 139.343 183.435 139.416C183.494 139.482 183.593 139.522 183.732 139.537V141C183.585 141.029 183.446 141.051 183.314 141.066C183.189 141.081 183.079 141.088 182.984 141.088C182.654 141.088 182.401 141.022 182.225 140.89C182.056 140.758 181.95 140.578 181.906 140.351L181.873 140.098C181.616 140.428 181.308 140.681 180.949 140.857C180.597 141.026 180.227 141.11 179.838 141.11C179.457 141.11 179.112 141.029 178.804 140.868C178.503 140.707 178.265 140.487 178.089 140.208C177.913 139.929 177.825 139.618 177.825 139.273ZM181.323 139.493C181.404 139.427 181.47 139.354 181.521 139.273C181.572 139.192 181.598 139.115 181.598 139.042V138.525C181.451 138.466 181.286 138.422 181.103 138.393C180.927 138.356 180.762 138.338 180.608 138.338C180.285 138.338 180.018 138.411 179.805 138.558C179.592 138.697 179.486 138.884 179.486 139.119C179.486 139.251 179.523 139.372 179.596 139.482C179.669 139.592 179.768 139.68 179.893 139.746C180.025 139.812 180.179 139.845 180.355 139.845C180.531 139.845 180.707 139.812 180.883 139.746C181.059 139.68 181.206 139.596 181.323 139.493Z" fill="#FFE500"/>
<path d="M190.765 141.066C190.178 141.066 189.646 140.956 189.17 140.736C188.7 140.509 188.293 140.208 187.949 139.834C187.611 139.453 187.351 139.027 187.168 138.558C186.984 138.081 186.893 137.59 186.893 137.084C186.893 136.563 186.988 136.068 187.179 135.599C187.377 135.13 187.648 134.712 187.993 134.345C188.345 133.971 188.759 133.678 189.236 133.465C189.712 133.252 190.233 133.146 190.798 133.146C191.377 133.146 191.901 133.26 192.371 133.487C192.847 133.707 193.254 134.008 193.592 134.389C193.936 134.77 194.2 135.199 194.384 135.676C194.567 136.145 194.659 136.626 194.659 137.117C194.659 137.638 194.563 138.133 194.373 138.602C194.182 139.071 193.911 139.493 193.559 139.867C193.207 140.234 192.792 140.527 192.316 140.747C191.846 140.96 191.329 141.066 190.765 141.066ZM188.73 137.106C188.73 137.407 188.774 137.7 188.862 137.986C188.95 138.265 189.078 138.514 189.247 138.734C189.423 138.954 189.639 139.13 189.896 139.262C190.152 139.394 190.446 139.46 190.776 139.46C191.12 139.46 191.421 139.394 191.678 139.262C191.934 139.123 192.147 138.939 192.316 138.712C192.484 138.485 192.609 138.232 192.69 137.953C192.778 137.667 192.822 137.377 192.822 137.084C192.822 136.783 192.778 136.494 192.69 136.215C192.602 135.936 192.47 135.687 192.294 135.467C192.118 135.24 191.901 135.064 191.645 134.939C191.388 134.814 191.098 134.752 190.776 134.752C190.431 134.752 190.13 134.818 189.874 134.95C189.624 135.082 189.412 135.262 189.236 135.489C189.067 135.709 188.939 135.962 188.851 136.248C188.77 136.527 188.73 136.813 188.73 137.106ZM199.156 141.11C198.724 141.11 198.346 141.018 198.023 140.835C197.701 140.644 197.448 140.388 197.264 140.065V143.343H195.504V135.225H197.033V136.16C197.246 135.83 197.514 135.573 197.836 135.39C198.159 135.207 198.537 135.115 198.969 135.115C199.358 135.115 199.714 135.192 200.036 135.346C200.366 135.5 200.652 135.713 200.894 135.984C201.136 136.255 201.323 136.571 201.455 136.93C201.587 137.289 201.653 137.678 201.653 138.096C201.653 138.668 201.547 139.181 201.334 139.636C201.122 140.091 200.825 140.45 200.443 140.714C200.069 140.978 199.64 141.11 199.156 141.11ZM198.562 139.625C198.753 139.625 198.925 139.585 199.079 139.504C199.241 139.416 199.38 139.302 199.497 139.163C199.615 139.024 199.703 138.862 199.761 138.679C199.827 138.488 199.86 138.29 199.86 138.085C199.86 137.872 199.824 137.678 199.75 137.502C199.684 137.326 199.589 137.172 199.464 137.04C199.34 136.901 199.193 136.794 199.024 136.721C198.856 136.648 198.672 136.611 198.474 136.611C198.357 136.611 198.236 136.629 198.111 136.666C197.994 136.703 197.88 136.758 197.77 136.831C197.668 136.897 197.572 136.978 197.484 137.073C197.396 137.168 197.323 137.278 197.264 137.403V138.591C197.345 138.789 197.451 138.965 197.583 139.119C197.715 139.273 197.866 139.398 198.034 139.493C198.203 139.581 198.379 139.625 198.562 139.625ZM204.752 141.11C204.26 141.11 203.78 141.029 203.311 140.868C202.841 140.707 202.445 140.468 202.123 140.153L202.728 139.042C203.08 139.299 203.421 139.493 203.751 139.625C204.088 139.757 204.403 139.823 204.697 139.823C204.924 139.823 205.1 139.786 205.225 139.713C205.349 139.64 205.412 139.526 205.412 139.372C205.412 139.262 205.375 139.178 205.302 139.119C205.228 139.053 205.115 138.994 204.961 138.943C204.814 138.892 204.631 138.837 204.411 138.778C203.971 138.631 203.604 138.488 203.311 138.349C203.017 138.21 202.797 138.041 202.651 137.843C202.504 137.638 202.431 137.374 202.431 137.051C202.431 136.662 202.526 136.325 202.717 136.039C202.915 135.746 203.193 135.518 203.553 135.357C203.912 135.196 204.341 135.115 204.84 135.115C205.236 135.115 205.621 135.177 205.995 135.302C206.376 135.427 206.732 135.636 207.062 135.929L206.38 137.029C206.05 136.802 205.756 136.637 205.5 136.534C205.243 136.431 204.994 136.38 204.752 136.38C204.627 136.38 204.513 136.395 204.411 136.424C204.308 136.453 204.224 136.505 204.158 136.578C204.099 136.644 204.07 136.732 204.07 136.842C204.07 136.952 204.099 137.04 204.158 137.106C204.224 137.172 204.323 137.231 204.455 137.282C204.594 137.326 204.766 137.381 204.972 137.447C205.448 137.586 205.844 137.729 206.16 137.876C206.475 138.015 206.71 138.191 206.864 138.404C207.025 138.609 207.106 138.884 207.106 139.229C207.106 139.816 206.893 140.278 206.468 140.615C206.05 140.945 205.478 141.11 204.752 141.11ZM208.008 141V135.225H209.768V141H208.008ZM208.008 134.565V132.97H209.768V134.565H208.008ZM213.684 141V133.19H217.017C217.391 133.19 217.732 133.267 218.04 133.421C218.355 133.568 218.626 133.769 218.854 134.026C219.081 134.275 219.257 134.558 219.382 134.873C219.506 135.188 219.569 135.511 219.569 135.841C219.569 136.288 219.462 136.714 219.25 137.117C219.044 137.52 218.755 137.85 218.381 138.107C218.014 138.356 217.578 138.481 217.072 138.481H215.488V141H213.684ZM215.488 136.908H216.962C217.101 136.908 217.229 136.868 217.347 136.787C217.464 136.706 217.559 136.585 217.633 136.424C217.706 136.263 217.743 136.065 217.743 135.83C217.743 135.588 217.699 135.39 217.611 135.236C217.53 135.075 217.424 134.957 217.292 134.884C217.167 134.811 217.035 134.774 216.896 134.774H215.488V136.908ZM223.037 141.11C222.546 141.11 222.109 141.033 221.728 140.879C221.347 140.718 221.02 140.501 220.749 140.23C220.485 139.959 220.283 139.647 220.144 139.295C220.005 138.936 219.935 138.562 219.935 138.173C219.935 137.616 220.056 137.11 220.298 136.655C220.547 136.193 220.903 135.823 221.365 135.544C221.827 135.258 222.384 135.115 223.037 135.115C223.69 135.115 224.243 135.254 224.698 135.533C225.16 135.812 225.512 136.178 225.754 136.633C225.996 137.08 226.117 137.568 226.117 138.096C226.117 138.199 226.11 138.301 226.095 138.404C226.088 138.499 226.08 138.584 226.073 138.657H221.805C221.827 138.914 221.897 139.13 222.014 139.306C222.139 139.482 222.296 139.618 222.487 139.713C222.678 139.801 222.879 139.845 223.092 139.845C223.356 139.845 223.602 139.783 223.829 139.658C224.064 139.533 224.225 139.365 224.313 139.152L225.809 139.57C225.662 139.871 225.453 140.138 225.182 140.373C224.918 140.6 224.603 140.78 224.236 140.912C223.877 141.044 223.477 141.11 223.037 141.11ZM221.761 137.579H224.269C224.24 137.337 224.17 137.128 224.06 136.952C223.95 136.769 223.803 136.629 223.62 136.534C223.437 136.431 223.235 136.38 223.015 136.38C222.788 136.38 222.582 136.431 222.399 136.534C222.223 136.629 222.08 136.769 221.97 136.952C221.86 137.128 221.79 137.337 221.761 137.579ZM232.481 141H230.721V137.755C230.721 137.374 230.647 137.099 230.501 136.93C230.361 136.754 230.174 136.666 229.94 136.666C229.778 136.666 229.613 136.71 229.445 136.798C229.276 136.886 229.122 137.007 228.983 137.161C228.851 137.315 228.748 137.491 228.675 137.689V141H226.915V135.225H228.499V136.193C228.645 135.966 228.829 135.771 229.049 135.61C229.269 135.449 229.522 135.328 229.808 135.247C230.094 135.159 230.405 135.115 230.743 135.115C231.117 135.115 231.417 135.185 231.645 135.324C231.879 135.456 232.055 135.632 232.173 135.852C232.297 136.072 232.378 136.31 232.415 136.567C232.459 136.816 232.481 137.062 232.481 137.304V141ZM235.894 141.022C235.513 141.022 235.164 140.949 234.849 140.802C234.534 140.648 234.262 140.439 234.035 140.175C233.815 139.904 233.643 139.592 233.518 139.24C233.393 138.888 233.331 138.51 233.331 138.107C233.331 137.682 233.397 137.289 233.529 136.93C233.661 136.571 233.844 136.255 234.079 135.984C234.321 135.705 234.603 135.493 234.926 135.346C235.256 135.192 235.619 135.115 236.015 135.115C236.448 135.115 236.829 135.21 237.159 135.401C237.489 135.584 237.753 135.841 237.951 136.171V135.225H239.48V140.604C239.48 141.191 239.337 141.697 239.051 142.122C238.772 142.547 238.38 142.874 237.874 143.101C237.375 143.336 236.796 143.453 236.136 143.453C235.52 143.453 234.988 143.35 234.541 143.145C234.101 142.947 233.716 142.665 233.386 142.298L234.332 141.341C234.545 141.583 234.809 141.774 235.124 141.913C235.439 142.06 235.777 142.133 236.136 142.133C236.422 142.133 236.686 142.082 236.928 141.979C237.17 141.876 237.361 141.711 237.5 141.484C237.647 141.257 237.72 140.963 237.72 140.604V140.043C237.544 140.358 237.287 140.6 236.95 140.769C236.62 140.938 236.268 141.022 235.894 141.022ZM236.499 139.625C236.638 139.625 236.767 139.607 236.884 139.57C237.009 139.526 237.122 139.471 237.225 139.405C237.328 139.332 237.423 139.247 237.511 139.152C237.599 139.049 237.669 138.939 237.72 138.822V137.612C237.647 137.407 237.54 137.231 237.401 137.084C237.262 136.93 237.108 136.813 236.939 136.732C236.77 136.651 236.594 136.611 236.411 136.611C236.228 136.611 236.055 136.651 235.894 136.732C235.733 136.813 235.593 136.93 235.476 137.084C235.366 137.231 235.278 137.396 235.212 137.579C235.153 137.762 235.124 137.953 235.124 138.151C235.124 138.364 235.157 138.558 235.223 138.734C235.296 138.91 235.395 139.068 235.52 139.207C235.645 139.339 235.791 139.442 235.96 139.515C236.129 139.588 236.308 139.625 236.499 139.625ZM240.686 141V135.225H242.446V141H240.686ZM240.686 134.565V132.97H242.446V134.565H240.686ZM247.314 136.732C246.889 136.732 246.504 136.802 246.159 136.941C245.814 137.073 245.565 137.271 245.411 137.535V141H243.651V135.225H245.268V136.391C245.466 136.002 245.723 135.698 246.038 135.478C246.353 135.258 246.683 135.144 247.028 135.137C247.109 135.137 247.167 135.137 247.204 135.137C247.248 135.137 247.285 135.141 247.314 135.148V136.732ZM248.055 141V135.225H249.815V141H248.055ZM248.055 134.565V132.97H249.815V134.565H248.055ZM260.15 141H258.39V137.755C258.39 137.381 258.32 137.106 258.181 136.93C258.042 136.754 257.862 136.666 257.642 136.666C257.407 136.666 257.176 136.761 256.949 136.952C256.722 137.143 256.56 137.388 256.465 137.689V141H254.705V137.755C254.705 137.374 254.635 137.099 254.496 136.93C254.357 136.754 254.177 136.666 253.957 136.666C253.73 136.666 253.502 136.761 253.275 136.952C253.048 137.143 252.883 137.388 252.78 137.689V141H251.02V135.225H252.604V136.193C252.817 135.848 253.103 135.584 253.462 135.401C253.829 135.21 254.254 135.115 254.738 135.115C255.215 135.115 255.581 135.229 255.838 135.456C256.095 135.676 256.26 135.936 256.333 136.237C256.553 135.878 256.843 135.603 257.202 135.412C257.569 135.214 257.979 135.115 258.434 135.115C258.801 135.115 259.098 135.185 259.325 135.324C259.552 135.456 259.725 135.632 259.842 135.852C259.959 136.072 260.04 136.31 260.084 136.567C260.128 136.816 260.15 137.062 260.15 137.304V141ZM260.937 139.273C260.937 138.892 261.044 138.558 261.256 138.272C261.469 137.986 261.762 137.762 262.136 137.601C262.51 137.432 262.939 137.348 263.423 137.348C263.658 137.348 263.889 137.37 264.116 137.414C264.344 137.451 264.542 137.506 264.71 137.579V137.326C264.71 137.011 264.615 136.769 264.424 136.6C264.234 136.431 263.944 136.347 263.555 136.347C263.233 136.347 262.928 136.402 262.642 136.512C262.364 136.622 262.067 136.78 261.751 136.985L261.223 135.863C261.605 135.614 262.001 135.427 262.411 135.302C262.829 135.177 263.269 135.115 263.731 135.115C264.597 135.115 265.268 135.324 265.744 135.742C266.228 136.153 266.47 136.75 266.47 137.535V139.042C266.47 139.218 266.496 139.343 266.547 139.416C266.606 139.482 266.705 139.522 266.844 139.537V141C266.698 141.029 266.558 141.051 266.426 141.066C266.302 141.081 266.192 141.088 266.096 141.088C265.766 141.088 265.513 141.022 265.337 140.89C265.169 140.758 265.062 140.578 265.018 140.351L264.985 140.098C264.729 140.428 264.421 140.681 264.061 140.857C263.709 141.026 263.339 141.11 262.95 141.11C262.569 141.11 262.224 141.029 261.916 140.868C261.616 140.707 261.377 140.487 261.201 140.208C261.025 139.929 260.937 139.618 260.937 139.273ZM264.435 139.493C264.516 139.427 264.582 139.354 264.633 139.273C264.685 139.192 264.71 139.115 264.71 139.042V138.525C264.564 138.466 264.399 138.422 264.215 138.393C264.039 138.356 263.874 138.338 263.72 138.338C263.398 138.338 263.13 138.411 262.917 138.558C262.705 138.697 262.598 138.884 262.598 139.119C262.598 139.251 262.635 139.372 262.708 139.482C262.782 139.592 262.881 139.68 263.005 139.746C263.137 139.812 263.291 139.845 263.467 139.845C263.643 139.845 263.819 139.812 263.995 139.746C264.171 139.68 264.318 139.596 264.435 139.493ZM273.312 141H271.552V137.755C271.552 137.374 271.478 137.099 271.332 136.93C271.192 136.754 271.005 136.666 270.771 136.666C270.609 136.666 270.444 136.71 270.276 136.798C270.107 136.886 269.953 137.007 269.814 137.161C269.682 137.315 269.579 137.491 269.506 137.689V141H267.746V135.225H269.33V136.193C269.476 135.966 269.66 135.771 269.88 135.61C270.1 135.449 270.353 135.328 270.639 135.247C270.925 135.159 271.236 135.115 271.574 135.115C271.948 135.115 272.248 135.185 272.476 135.324C272.71 135.456 272.886 135.632 273.004 135.852C273.128 136.072 273.209 136.31 273.246 136.567C273.29 136.816 273.312 137.062 273.312 137.304V141Z" fill="white"/>
<path d="M152.031 95.0547V99.5625C151.854 99.776 151.581 100.008 151.211 100.258C150.841 100.503 150.365 100.714 149.781 100.891C149.198 101.068 148.492 101.156 147.664 101.156C146.93 101.156 146.26 101.036 145.656 100.797C145.052 100.552 144.531 100.195 144.094 99.7266C143.661 99.2578 143.328 98.6849 143.094 98.0078C142.859 97.3255 142.742 96.5469 142.742 95.6719V94.9609C142.742 94.0859 142.854 93.3073 143.078 92.625C143.307 91.9427 143.633 91.3672 144.055 90.8984C144.477 90.4297 144.979 90.0729 145.562 89.8281C146.146 89.5833 146.794 89.4609 147.508 89.4609C148.497 89.4609 149.31 89.6224 149.945 89.9453C150.581 90.263 151.065 90.7057 151.398 91.2734C151.737 91.8359 151.945 92.4818 152.023 93.2109H149.75C149.693 92.8255 149.583 92.4896 149.422 92.2031C149.26 91.9167 149.029 91.6927 148.727 91.5312C148.43 91.3698 148.044 91.2891 147.57 91.2891C147.18 91.2891 146.831 91.3698 146.523 91.5312C146.221 91.6875 145.966 91.9193 145.758 92.2266C145.549 92.5339 145.391 92.9141 145.281 93.3672C145.172 93.8203 145.117 94.3464 145.117 94.9453V95.6719C145.117 96.2656 145.174 96.7917 145.289 97.25C145.404 97.7031 145.573 98.0859 145.797 98.3984C146.026 98.7057 146.307 98.9375 146.641 99.0938C146.974 99.25 147.362 99.3281 147.805 99.3281C148.174 99.3281 148.482 99.2969 148.727 99.2344C148.977 99.1719 149.177 99.0964 149.328 99.0078C149.484 98.9141 149.604 98.8255 149.688 98.7422V96.7266H147.547V95.0547H152.031ZM153.922 89.625H158.164C159.034 89.625 159.781 89.7552 160.406 90.0156C161.036 90.276 161.521 90.6615 161.859 91.1719C162.198 91.6823 162.367 92.3099 162.367 93.0547C162.367 93.6641 162.263 94.1875 162.055 94.625C161.852 95.0573 161.562 95.4193 161.188 95.7109C160.818 95.9974 160.383 96.2266 159.883 96.3984L159.141 96.7891H155.453L155.438 94.9609H158.18C158.591 94.9609 158.932 94.888 159.203 94.7422C159.474 94.5964 159.677 94.3932 159.812 94.1328C159.953 93.8724 160.023 93.5703 160.023 93.2266C160.023 92.862 159.956 92.5469 159.82 92.2812C159.685 92.0156 159.479 91.8125 159.203 91.6719C158.927 91.5312 158.581 91.4609 158.164 91.4609H156.266V101H153.922V89.625ZM160.281 101L157.688 95.9297L160.164 95.9141L162.789 100.891V101H160.281ZM168.797 91.5703L165.703 101H163.211L167.438 89.625H169.023L168.797 91.5703ZM171.367 101L168.266 91.5703L168.016 89.625H169.617L173.867 101H171.367ZM171.227 96.7656V98.6016H165.219V96.7656H171.227ZM179.039 89.625V101H176.703V89.625H179.039ZM182.539 89.625V91.4609H173.258V89.625H182.539ZM186.367 89.625V101H184.031V89.625H186.367ZM194.484 98.0234C194.484 97.8203 194.453 97.638 194.391 97.4766C194.333 97.3099 194.224 97.1589 194.062 97.0234C193.901 96.8828 193.674 96.7448 193.383 96.6094C193.091 96.474 192.714 96.3333 192.25 96.1875C191.734 96.0208 191.245 95.8333 190.781 95.625C190.323 95.4167 189.917 95.1745 189.562 94.8984C189.214 94.6172 188.938 94.2917 188.734 93.9219C188.536 93.5521 188.438 93.1224 188.438 92.6328C188.438 92.1589 188.542 91.7292 188.75 91.3438C188.958 90.9531 189.25 90.6198 189.625 90.3438C190 90.0625 190.443 89.8464 190.953 89.6953C191.469 89.5443 192.034 89.4688 192.648 89.4688C193.487 89.4688 194.219 89.6198 194.844 89.9219C195.469 90.224 195.953 90.638 196.297 91.1641C196.646 91.6901 196.82 92.2917 196.82 92.9688H194.492C194.492 92.6354 194.422 92.3438 194.281 92.0938C194.146 91.8385 193.938 91.638 193.656 91.4922C193.38 91.3464 193.031 91.2734 192.609 91.2734C192.203 91.2734 191.865 91.3359 191.594 91.4609C191.323 91.5807 191.12 91.7448 190.984 91.9531C190.849 92.1562 190.781 92.3854 190.781 92.6406C190.781 92.8333 190.828 93.0078 190.922 93.1641C191.021 93.3203 191.167 93.4661 191.359 93.6016C191.552 93.737 191.789 93.8646 192.07 93.9844C192.352 94.1042 192.677 94.2214 193.047 94.3359C193.667 94.5234 194.211 94.7344 194.68 94.9688C195.154 95.2031 195.549 95.4661 195.867 95.7578C196.185 96.0495 196.424 96.3802 196.586 96.75C196.747 97.1198 196.828 97.5391 196.828 98.0078C196.828 98.5026 196.732 98.9453 196.539 99.3359C196.346 99.7266 196.068 100.057 195.703 100.328C195.339 100.599 194.904 100.805 194.398 100.945C193.893 101.086 193.328 101.156 192.703 101.156C192.141 101.156 191.586 101.083 191.039 100.938C190.492 100.786 189.995 100.56 189.547 100.258C189.104 99.9557 188.75 99.5703 188.484 99.1016C188.219 98.6328 188.086 98.0781 188.086 97.4375H190.438C190.438 97.7917 190.492 98.0911 190.602 98.3359C190.711 98.5807 190.865 98.7786 191.062 98.9297C191.266 99.0807 191.505 99.1901 191.781 99.2578C192.062 99.3255 192.37 99.3594 192.703 99.3594C193.109 99.3594 193.443 99.3021 193.703 99.1875C193.969 99.0729 194.164 98.9141 194.289 98.7109C194.419 98.5078 194.484 98.2786 194.484 98.0234ZM152.359 114.047V114.586C152.359 115.451 152.242 116.227 152.008 116.914C151.773 117.602 151.443 118.188 151.016 118.672C150.589 119.151 150.078 119.518 149.484 119.773C148.896 120.029 148.242 120.156 147.523 120.156C146.81 120.156 146.156 120.029 145.562 119.773C144.974 119.518 144.464 119.151 144.031 118.672C143.599 118.188 143.263 117.602 143.023 116.914C142.789 116.227 142.672 115.451 142.672 114.586V114.047C142.672 113.177 142.789 112.401 143.023 111.719C143.258 111.031 143.589 110.445 144.016 109.961C144.448 109.477 144.958 109.107 145.547 108.852C146.141 108.596 146.794 108.469 147.508 108.469C148.227 108.469 148.88 108.596 149.469 108.852C150.062 109.107 150.573 109.477 151 109.961C151.432 110.445 151.766 111.031 152 111.719C152.24 112.401 152.359 113.177 152.359 114.047ZM149.992 114.586V114.031C149.992 113.427 149.938 112.896 149.828 112.438C149.719 111.979 149.557 111.594 149.344 111.281C149.13 110.969 148.87 110.734 148.562 110.578C148.255 110.417 147.904 110.336 147.508 110.336C147.112 110.336 146.76 110.417 146.453 110.578C146.151 110.734 145.893 110.969 145.68 111.281C145.471 111.594 145.312 111.979 145.203 112.438C145.094 112.896 145.039 113.427 145.039 114.031V114.586C145.039 115.185 145.094 115.716 145.203 116.18C145.312 116.638 145.474 117.026 145.688 117.344C145.901 117.656 146.161 117.893 146.469 118.055C146.776 118.216 147.128 118.297 147.523 118.297C147.919 118.297 148.271 118.216 148.578 118.055C148.885 117.893 149.143 117.656 149.352 117.344C149.56 117.026 149.719 116.638 149.828 116.18C149.938 115.716 149.992 115.185 149.992 114.586ZM163.305 108.625V120H160.961L156.391 112.375V120H154.047V108.625H156.391L160.969 116.258V108.625H163.305ZM174.359 114.055V118.562C174.182 118.776 173.909 119.008 173.539 119.258C173.169 119.503 172.693 119.714 172.109 119.891C171.526 120.068 170.82 120.156 169.992 120.156C169.258 120.156 168.589 120.036 167.984 119.797C167.38 119.552 166.859 119.195 166.422 118.727C165.99 118.258 165.656 117.685 165.422 117.008C165.188 116.326 165.07 115.547 165.07 114.672V113.961C165.07 113.086 165.182 112.307 165.406 111.625C165.635 110.943 165.961 110.367 166.383 109.898C166.805 109.43 167.307 109.073 167.891 108.828C168.474 108.583 169.122 108.461 169.836 108.461C170.826 108.461 171.638 108.622 172.273 108.945C172.909 109.263 173.393 109.706 173.727 110.273C174.065 110.836 174.273 111.482 174.352 112.211H172.078C172.021 111.826 171.911 111.49 171.75 111.203C171.589 110.917 171.357 110.693 171.055 110.531C170.758 110.37 170.372 110.289 169.898 110.289C169.508 110.289 169.159 110.37 168.852 110.531C168.549 110.688 168.294 110.919 168.086 111.227C167.878 111.534 167.719 111.914 167.609 112.367C167.5 112.82 167.445 113.346 167.445 113.945V114.672C167.445 115.266 167.503 115.792 167.617 116.25C167.732 116.703 167.901 117.086 168.125 117.398C168.354 117.706 168.635 117.938 168.969 118.094C169.302 118.25 169.69 118.328 170.133 118.328C170.503 118.328 170.81 118.297 171.055 118.234C171.305 118.172 171.505 118.096 171.656 118.008C171.812 117.914 171.932 117.826 172.016 117.742V115.727H169.875V114.055H174.359ZM178.594 108.625V120H176.25V108.625H178.594ZM185.406 108.625L180.898 114.242L178.297 117.039L177.875 114.82L179.633 112.414L182.531 108.625H185.406ZM182.742 120L179.391 114.742L181.125 113.289L185.516 120H182.742ZM188.914 108.625V120H186.578V108.625H188.914ZM191.109 108.625H195.352C196.221 108.625 196.969 108.755 197.594 109.016C198.224 109.276 198.708 109.661 199.047 110.172C199.385 110.682 199.555 111.31 199.555 112.055C199.555 112.664 199.451 113.188 199.242 113.625C199.039 114.057 198.75 114.419 198.375 114.711C198.005 114.997 197.57 115.227 197.07 115.398L196.328 115.789H192.641L192.625 113.961H195.367C195.779 113.961 196.12 113.888 196.391 113.742C196.661 113.596 196.865 113.393 197 113.133C197.141 112.872 197.211 112.57 197.211 112.227C197.211 111.862 197.143 111.547 197.008 111.281C196.872 111.016 196.667 110.812 196.391 110.672C196.115 110.531 195.768 110.461 195.352 110.461H193.453V120H191.109V108.625ZM197.469 120L194.875 114.93L197.352 114.914L199.977 119.891V120H197.469Z" fill="white"/>
<path d="M203.793 88.7188H215.459C217.851 88.7188 219.906 89.0768 221.625 89.793C223.358 90.5091 224.69 91.569 225.621 92.9727C226.552 94.3763 227.018 96.1022 227.018 98.1504C227.018 99.8262 226.731 101.266 226.158 102.469C225.6 103.658 224.805 104.653 223.773 105.455C222.757 106.243 221.561 106.873 220.186 107.346L218.145 108.42H208.004L207.961 103.393H215.502C216.633 103.393 217.572 103.192 218.316 102.791C219.061 102.39 219.62 101.831 219.992 101.115C220.379 100.399 220.572 99.5684 220.572 98.623C220.572 97.6204 220.386 96.7539 220.014 96.0234C219.641 95.293 219.076 94.7344 218.316 94.3477C217.557 93.9609 216.605 93.7676 215.459 93.7676H210.238V120H203.793V88.7188ZM221.281 120L214.148 106.057L220.959 106.014L228.178 119.699V120H221.281ZM244.162 108.85H236.191V103.822H244.162C245.394 103.822 246.396 103.622 247.17 103.221C247.943 102.805 248.509 102.232 248.867 101.502C249.225 100.771 249.404 99.9479 249.404 99.0312C249.404 98.1003 249.225 97.2337 248.867 96.4316C248.509 95.6296 247.943 94.985 247.17 94.498C246.396 94.0111 245.394 93.7676 244.162 93.7676H238.426V120H231.98V88.7188H244.162C246.611 88.7188 248.71 89.1628 250.457 90.0508C252.219 90.9245 253.565 92.1348 254.496 93.6816C255.427 95.2285 255.893 96.9974 255.893 98.9883C255.893 101.008 255.427 102.755 254.496 104.23C253.565 105.706 252.219 106.844 250.457 107.646C248.71 108.449 246.611 108.85 244.162 108.85ZM280.75 101.609V107.023C280.75 109.372 280.499 111.399 279.998 113.104C279.497 114.794 278.773 116.183 277.828 117.271C276.897 118.346 275.787 119.141 274.498 119.656C273.209 120.172 271.777 120.43 270.201 120.43C268.941 120.43 267.766 120.272 266.678 119.957C265.589 119.628 264.608 119.119 263.734 118.432C262.875 117.744 262.13 116.878 261.5 115.832C260.884 114.772 260.411 113.512 260.082 112.051C259.753 110.59 259.588 108.914 259.588 107.023V101.609C259.588 99.2604 259.839 97.248 260.34 95.5723C260.855 93.8822 261.579 92.5 262.51 91.4258C263.455 90.3516 264.572 89.5638 265.861 89.0625C267.15 88.5469 268.583 88.2891 270.158 88.2891C271.419 88.2891 272.586 88.4538 273.66 88.7832C274.749 89.0983 275.73 89.5924 276.604 90.2656C277.477 90.9388 278.222 91.8053 278.838 92.8652C279.454 93.9108 279.926 95.1641 280.256 96.625C280.585 98.0716 280.75 99.7331 280.75 101.609ZM274.541 107.84V100.771C274.541 99.64 274.477 98.6517 274.348 97.8066C274.233 96.9616 274.054 96.2454 273.811 95.6582C273.567 95.0566 273.266 94.5697 272.908 94.1973C272.55 93.8249 272.142 93.5527 271.684 93.3809C271.225 93.209 270.717 93.123 270.158 93.123C269.456 93.123 268.833 93.2591 268.289 93.5312C267.759 93.8034 267.308 94.2402 266.936 94.8418C266.563 95.429 266.277 96.2168 266.076 97.2051C265.89 98.179 265.797 99.3678 265.797 100.771V107.84C265.797 108.971 265.854 109.967 265.969 110.826C266.098 111.686 266.284 112.423 266.527 113.039C266.785 113.641 267.086 114.135 267.43 114.521C267.788 114.894 268.196 115.166 268.654 115.338C269.127 115.51 269.643 115.596 270.201 115.596C270.889 115.596 271.497 115.46 272.027 115.188C272.572 114.901 273.03 114.457 273.402 113.855C273.789 113.24 274.076 112.438 274.262 111.449C274.448 110.461 274.541 109.258 274.541 107.84Z" fill="#FFE600"/>
<defs>
<linearGradient id="paint0_linear_242_403" x1="214" y1="0" x2="214" y2="180" gradientUnits="userSpaceOnUse">
<stop stop-color="#0091FF"/>
<stop offset="1" stop-color="#50F090"/>
</linearGradient>
</defs>
</svg>
