<svg width="428" height="180" viewBox="0 0 428 180" fill="none" xmlns="http://www.w3.org/2000/svg">
<rect width="428" height="180" fill="url(#paint0_linear_242_403)"/>
<line y1="64.8" x2="48.8846" y2="64.8" stroke="#FFE500" stroke-width="2"/>
<line x1="379.115" y1="159.2" x2="428" y2="159.2" stroke="#FFE500" stroke-width="2"/>
<rect x="400.508" y="130.04" width="27.9232" height="3.04004" rx="1.52002" transform="rotate(-180 400.508 130.04)" fill="#E2E0E0" fill-opacity="0.5"/>
<ellipse cx="369.094" cy="132.32" rx="2.09424" ry="2.28003" transform="rotate(-180 369.094 132.32)" fill="#E2E0E0" fill-opacity="0.5"/>
<rect x="26" y="94.8" width="33.9689" height="3.2" rx="1.6" fill="#E2E2E2" fill-opacity="0.6"/>
<ellipse cx="64.215" cy="92.4" rx="2.54767" ry="2.4" fill="#E2E2E2" fill-opacity="0.6"/>
<path d="M34.7447 138H0V153H36.8293C38.914 153 38.914 150 36.8293 150H24.3213C22.9315 150 22.9315 147 24.3213 147H28.9954C30.5753 147 30.5753 144 28.9954 144H21.5417C20.1519 144 20.1519 141 21.5417 141H34.7447C36.0626 141 36.0626 138 34.7447 138Z" fill="#007398" fill-opacity="0.7"/>
<rect x="37.2411" y="138" width="5.75893" height="3.26087" rx="1.63043" fill="#007398" fill-opacity="0.7"/>
<rect x="31.0982" y="143.87" width="5.75893" height="3.26087" rx="1.63043" fill="#007398" fill-opacity="0.7"/>
<path d="M397.295 49L428 49V33.4L395.453 33.4C393.611 33.4 393.611 36.52 395.453 36.52H406.507C407.735 36.52 407.735 39.64 406.507 39.64H402.376C400.98 39.64 400.98 42.76 402.376 42.76H408.963C410.191 42.76 410.191 45.88 408.963 45.88H397.295C396.131 45.88 396.131 49 397.295 49Z" fill="#04FFF0" fill-opacity="0.7"/>
<rect x="395.089" y="49" width="5.08929" height="3.39129" rx="1.69565" transform="rotate(-180 395.089 49)" fill="#04FFF0" fill-opacity="0.7"/>
<rect x="400.518" y="42.8958" width="5.08929" height="3.39129" rx="1.69565" transform="rotate(-180 400.518 42.8958)" fill="#04FFF0" fill-opacity="0.7"/>
<rect x="141" y="116" width="140" height="25" rx="10" fill="#007398"/>
<path d="M152.434 126.478C152.412 126.441 152.335 126.386 152.203 126.313C152.071 126.232 151.906 126.148 151.708 126.06C151.51 125.972 151.294 125.895 151.059 125.829C150.824 125.763 150.59 125.73 150.355 125.73C150.047 125.73 149.809 125.785 149.64 125.895C149.471 125.998 149.387 126.159 149.387 126.379C149.387 126.555 149.449 126.694 149.574 126.797C149.706 126.9 149.893 126.991 150.135 127.072C150.377 127.145 150.674 127.233 151.026 127.336C151.525 127.468 151.957 127.629 152.324 127.82C152.691 128.003 152.969 128.242 153.16 128.535C153.358 128.828 153.457 129.217 153.457 129.701C153.457 130.141 153.376 130.515 153.215 130.823C153.054 131.124 152.834 131.369 152.555 131.56C152.284 131.743 151.972 131.879 151.62 131.967C151.268 132.048 150.905 132.088 150.531 132.088C150.15 132.088 149.757 132.051 149.354 131.978C148.958 131.897 148.577 131.787 148.21 131.648C147.843 131.501 147.506 131.325 147.198 131.12L147.99 129.547C148.019 129.584 148.115 129.653 148.276 129.756C148.437 129.851 148.635 129.954 148.87 130.064C149.112 130.167 149.38 130.258 149.673 130.339C149.966 130.42 150.263 130.46 150.564 130.46C150.887 130.46 151.125 130.409 151.279 130.306C151.44 130.203 151.521 130.06 151.521 129.877C151.521 129.679 151.437 129.525 151.268 129.415C151.107 129.305 150.883 129.206 150.597 129.118C150.318 129.03 149.996 128.931 149.629 128.821C149.152 128.674 148.756 128.509 148.441 128.326C148.133 128.143 147.902 127.919 147.748 127.655C147.601 127.391 147.528 127.061 147.528 126.665C147.528 126.115 147.656 125.653 147.913 125.279C148.177 124.898 148.529 124.612 148.969 124.421C149.409 124.223 149.889 124.124 150.41 124.124C150.777 124.124 151.129 124.168 151.466 124.256C151.811 124.344 152.13 124.454 152.423 124.586C152.724 124.718 152.991 124.85 153.226 124.982L152.434 126.478ZM157.134 132.11C156.642 132.11 156.206 132.033 155.825 131.879C155.443 131.718 155.117 131.501 154.846 131.23C154.582 130.959 154.38 130.647 154.241 130.295C154.101 129.936 154.032 129.562 154.032 129.173C154.032 128.616 154.153 128.11 154.395 127.655C154.644 127.193 155 126.823 155.462 126.544C155.924 126.258 156.481 126.115 157.134 126.115C157.786 126.115 158.34 126.254 158.795 126.533C159.257 126.812 159.609 127.178 159.851 127.633C160.093 128.08 160.214 128.568 160.214 129.096C160.214 129.199 160.206 129.301 160.192 129.404C160.184 129.499 160.177 129.584 160.17 129.657H155.902C155.924 129.914 155.993 130.13 156.111 130.306C156.235 130.482 156.393 130.618 156.584 130.713C156.774 130.801 156.976 130.845 157.189 130.845C157.453 130.845 157.698 130.783 157.926 130.658C158.16 130.533 158.322 130.365 158.41 130.152L159.906 130.57C159.759 130.871 159.55 131.138 159.279 131.373C159.015 131.6 158.699 131.78 158.333 131.912C157.973 132.044 157.574 132.11 157.134 132.11ZM155.858 128.579H158.366C158.336 128.337 158.267 128.128 158.157 127.952C158.047 127.769 157.9 127.629 157.717 127.534C157.533 127.431 157.332 127.38 157.112 127.38C156.884 127.38 156.679 127.431 156.496 127.534C156.32 127.629 156.177 127.769 156.067 127.952C155.957 128.128 155.887 128.337 155.858 128.579ZM170.141 132H168.381V128.755C168.381 128.381 168.312 128.106 168.172 127.93C168.033 127.754 167.853 127.666 167.633 127.666C167.399 127.666 167.168 127.761 166.94 127.952C166.713 128.143 166.552 128.388 166.456 128.689V132H164.696V128.755C164.696 128.374 164.627 128.099 164.487 127.93C164.348 127.754 164.168 127.666 163.948 127.666C163.721 127.666 163.494 127.761 163.266 127.952C163.039 128.143 162.874 128.388 162.771 128.689V132H161.011V126.225H162.595V127.193C162.808 126.848 163.094 126.584 163.453 126.401C163.82 126.21 164.245 126.115 164.729 126.115C165.206 126.115 165.573 126.229 165.829 126.456C166.086 126.676 166.251 126.936 166.324 127.237C166.544 126.878 166.834 126.603 167.193 126.412C167.56 126.214 167.971 126.115 168.425 126.115C168.792 126.115 169.089 126.185 169.316 126.324C169.544 126.456 169.716 126.632 169.833 126.852C169.951 127.072 170.031 127.31 170.075 127.567C170.119 127.816 170.141 128.062 170.141 128.304V132ZM171.237 129.921V126.225H172.997V129.536C172.997 129.888 173.066 130.159 173.206 130.35C173.345 130.533 173.543 130.625 173.8 130.625C173.961 130.625 174.115 130.599 174.262 130.548C174.408 130.489 174.551 130.398 174.691 130.273C174.83 130.148 174.955 129.987 175.065 129.789V126.225H176.825V130.042C176.825 130.218 176.85 130.343 176.902 130.416C176.96 130.482 177.059 130.522 177.199 130.537V132C177.037 132.029 176.894 132.051 176.77 132.066C176.652 132.081 176.546 132.088 176.451 132.088C176.143 132.088 175.897 132.026 175.714 131.901C175.53 131.769 175.417 131.586 175.373 131.351L175.34 130.999C175.076 131.38 174.746 131.663 174.35 131.846C173.961 132.022 173.525 132.11 173.041 132.11C172.454 132.11 172.007 131.923 171.699 131.549C171.391 131.175 171.237 130.632 171.237 129.921ZM177.825 130.273C177.825 129.892 177.931 129.558 178.144 129.272C178.357 128.986 178.65 128.762 179.024 128.601C179.398 128.432 179.827 128.348 180.311 128.348C180.546 128.348 180.777 128.37 181.004 128.414C181.231 128.451 181.429 128.506 181.598 128.579V128.326C181.598 128.011 181.503 127.769 181.312 127.6C181.121 127.431 180.832 127.347 180.443 127.347C180.12 127.347 179.816 127.402 179.53 127.512C179.251 127.622 178.954 127.78 178.639 127.985L178.111 126.863C178.492 126.614 178.888 126.427 179.299 126.302C179.717 126.177 180.157 126.115 180.619 126.115C181.484 126.115 182.155 126.324 182.632 126.742C183.116 127.153 183.358 127.75 183.358 128.535V130.042C183.358 130.218 183.384 130.343 183.435 130.416C183.494 130.482 183.593 130.522 183.732 130.537V132C183.585 132.029 183.446 132.051 183.314 132.066C183.189 132.081 183.079 132.088 182.984 132.088C182.654 132.088 182.401 132.022 182.225 131.89C182.056 131.758 181.95 131.578 181.906 131.351L181.873 131.098C181.616 131.428 181.308 131.681 180.949 131.857C180.597 132.026 180.227 132.11 179.838 132.11C179.457 132.11 179.112 132.029 178.804 131.868C178.503 131.707 178.265 131.487 178.089 131.208C177.913 130.929 177.825 130.618 177.825 130.273ZM181.323 130.493C181.404 130.427 181.47 130.354 181.521 130.273C181.572 130.192 181.598 130.115 181.598 130.042V129.525C181.451 129.466 181.286 129.422 181.103 129.393C180.927 129.356 180.762 129.338 180.608 129.338C180.285 129.338 180.018 129.411 179.805 129.558C179.592 129.697 179.486 129.884 179.486 130.119C179.486 130.251 179.523 130.372 179.596 130.482C179.669 130.592 179.768 130.68 179.893 130.746C180.025 130.812 180.179 130.845 180.355 130.845C180.531 130.845 180.707 130.812 180.883 130.746C181.059 130.68 181.206 130.596 181.323 130.493Z" fill="#FFE500"/>
<path d="M190.765 132.066C190.178 132.066 189.646 131.956 189.17 131.736C188.7 131.509 188.293 131.208 187.949 130.834C187.611 130.453 187.351 130.027 187.168 129.558C186.984 129.081 186.893 128.59 186.893 128.084C186.893 127.563 186.988 127.068 187.179 126.599C187.377 126.13 187.648 125.712 187.993 125.345C188.345 124.971 188.759 124.678 189.236 124.465C189.712 124.252 190.233 124.146 190.798 124.146C191.377 124.146 191.901 124.26 192.371 124.487C192.847 124.707 193.254 125.008 193.592 125.389C193.936 125.77 194.2 126.199 194.384 126.676C194.567 127.145 194.659 127.626 194.659 128.117C194.659 128.638 194.563 129.133 194.373 129.602C194.182 130.071 193.911 130.493 193.559 130.867C193.207 131.234 192.792 131.527 192.316 131.747C191.846 131.96 191.329 132.066 190.765 132.066ZM188.73 128.106C188.73 128.407 188.774 128.7 188.862 128.986C188.95 129.265 189.078 129.514 189.247 129.734C189.423 129.954 189.639 130.13 189.896 130.262C190.152 130.394 190.446 130.46 190.776 130.46C191.12 130.46 191.421 130.394 191.678 130.262C191.934 130.123 192.147 129.939 192.316 129.712C192.484 129.485 192.609 129.232 192.69 128.953C192.778 128.667 192.822 128.377 192.822 128.084C192.822 127.783 192.778 127.494 192.69 127.215C192.602 126.936 192.47 126.687 192.294 126.467C192.118 126.24 191.901 126.064 191.645 125.939C191.388 125.814 191.098 125.752 190.776 125.752C190.431 125.752 190.13 125.818 189.874 125.95C189.624 126.082 189.412 126.262 189.236 126.489C189.067 126.709 188.939 126.962 188.851 127.248C188.77 127.527 188.73 127.813 188.73 128.106ZM199.156 132.11C198.724 132.11 198.346 132.018 198.023 131.835C197.701 131.644 197.448 131.388 197.264 131.065V134.343H195.504V126.225H197.033V127.16C197.246 126.83 197.514 126.573 197.836 126.39C198.159 126.207 198.537 126.115 198.969 126.115C199.358 126.115 199.714 126.192 200.036 126.346C200.366 126.5 200.652 126.713 200.894 126.984C201.136 127.255 201.323 127.571 201.455 127.93C201.587 128.289 201.653 128.678 201.653 129.096C201.653 129.668 201.547 130.181 201.334 130.636C201.122 131.091 200.825 131.45 200.443 131.714C200.069 131.978 199.64 132.11 199.156 132.11ZM198.562 130.625C198.753 130.625 198.925 130.585 199.079 130.504C199.241 130.416 199.38 130.302 199.497 130.163C199.615 130.024 199.703 129.862 199.761 129.679C199.827 129.488 199.86 129.29 199.86 129.085C199.86 128.872 199.824 128.678 199.75 128.502C199.684 128.326 199.589 128.172 199.464 128.04C199.34 127.901 199.193 127.794 199.024 127.721C198.856 127.648 198.672 127.611 198.474 127.611C198.357 127.611 198.236 127.629 198.111 127.666C197.994 127.703 197.88 127.758 197.77 127.831C197.668 127.897 197.572 127.978 197.484 128.073C197.396 128.168 197.323 128.278 197.264 128.403V129.591C197.345 129.789 197.451 129.965 197.583 130.119C197.715 130.273 197.866 130.398 198.034 130.493C198.203 130.581 198.379 130.625 198.562 130.625ZM204.752 132.11C204.26 132.11 203.78 132.029 203.311 131.868C202.841 131.707 202.445 131.468 202.123 131.153L202.728 130.042C203.08 130.299 203.421 130.493 203.751 130.625C204.088 130.757 204.403 130.823 204.697 130.823C204.924 130.823 205.1 130.786 205.225 130.713C205.349 130.64 205.412 130.526 205.412 130.372C205.412 130.262 205.375 130.178 205.302 130.119C205.228 130.053 205.115 129.994 204.961 129.943C204.814 129.892 204.631 129.837 204.411 129.778C203.971 129.631 203.604 129.488 203.311 129.349C203.017 129.21 202.797 129.041 202.651 128.843C202.504 128.638 202.431 128.374 202.431 128.051C202.431 127.662 202.526 127.325 202.717 127.039C202.915 126.746 203.193 126.518 203.553 126.357C203.912 126.196 204.341 126.115 204.84 126.115C205.236 126.115 205.621 126.177 205.995 126.302C206.376 126.427 206.732 126.636 207.062 126.929L206.38 128.029C206.05 127.802 205.756 127.637 205.5 127.534C205.243 127.431 204.994 127.38 204.752 127.38C204.627 127.38 204.513 127.395 204.411 127.424C204.308 127.453 204.224 127.505 204.158 127.578C204.099 127.644 204.07 127.732 204.07 127.842C204.07 127.952 204.099 128.04 204.158 128.106C204.224 128.172 204.323 128.231 204.455 128.282C204.594 128.326 204.766 128.381 204.972 128.447C205.448 128.586 205.844 128.729 206.16 128.876C206.475 129.015 206.71 129.191 206.864 129.404C207.025 129.609 207.106 129.884 207.106 130.229C207.106 130.816 206.893 131.278 206.468 131.615C206.05 131.945 205.478 132.11 204.752 132.11ZM208.008 132V126.225H209.768V132H208.008ZM208.008 125.565V123.97H209.768V125.565H208.008ZM213.684 132V124.19H217.017C217.391 124.19 217.732 124.267 218.04 124.421C218.355 124.568 218.626 124.769 218.854 125.026C219.081 125.275 219.257 125.558 219.382 125.873C219.506 126.188 219.569 126.511 219.569 126.841C219.569 127.288 219.462 127.714 219.25 128.117C219.044 128.52 218.755 128.85 218.381 129.107C218.014 129.356 217.578 129.481 217.072 129.481H215.488V132H213.684ZM215.488 127.908H216.962C217.101 127.908 217.229 127.868 217.347 127.787C217.464 127.706 217.559 127.585 217.633 127.424C217.706 127.263 217.743 127.065 217.743 126.83C217.743 126.588 217.699 126.39 217.611 126.236C217.53 126.075 217.424 125.957 217.292 125.884C217.167 125.811 217.035 125.774 216.896 125.774H215.488V127.908ZM223.037 132.11C222.546 132.11 222.109 132.033 221.728 131.879C221.347 131.718 221.02 131.501 220.749 131.23C220.485 130.959 220.283 130.647 220.144 130.295C220.005 129.936 219.935 129.562 219.935 129.173C219.935 128.616 220.056 128.11 220.298 127.655C220.547 127.193 220.903 126.823 221.365 126.544C221.827 126.258 222.384 126.115 223.037 126.115C223.69 126.115 224.243 126.254 224.698 126.533C225.16 126.812 225.512 127.178 225.754 127.633C225.996 128.08 226.117 128.568 226.117 129.096C226.117 129.199 226.11 129.301 226.095 129.404C226.088 129.499 226.08 129.584 226.073 129.657H221.805C221.827 129.914 221.897 130.13 222.014 130.306C222.139 130.482 222.296 130.618 222.487 130.713C222.678 130.801 222.879 130.845 223.092 130.845C223.356 130.845 223.602 130.783 223.829 130.658C224.064 130.533 224.225 130.365 224.313 130.152L225.809 130.57C225.662 130.871 225.453 131.138 225.182 131.373C224.918 131.6 224.603 131.78 224.236 131.912C223.877 132.044 223.477 132.11 223.037 132.11ZM221.761 128.579H224.269C224.24 128.337 224.17 128.128 224.06 127.952C223.95 127.769 223.803 127.629 223.62 127.534C223.437 127.431 223.235 127.38 223.015 127.38C222.788 127.38 222.582 127.431 222.399 127.534C222.223 127.629 222.08 127.769 221.97 127.952C221.86 128.128 221.79 128.337 221.761 128.579ZM232.481 132H230.721V128.755C230.721 128.374 230.647 128.099 230.501 127.93C230.361 127.754 230.174 127.666 229.94 127.666C229.778 127.666 229.613 127.71 229.445 127.798C229.276 127.886 229.122 128.007 228.983 128.161C228.851 128.315 228.748 128.491 228.675 128.689V132H226.915V126.225H228.499V127.193C228.645 126.966 228.829 126.771 229.049 126.61C229.269 126.449 229.522 126.328 229.808 126.247C230.094 126.159 230.405 126.115 230.743 126.115C231.117 126.115 231.417 126.185 231.645 126.324C231.879 126.456 232.055 126.632 232.173 126.852C232.297 127.072 232.378 127.31 232.415 127.567C232.459 127.816 232.481 128.062 232.481 128.304V132ZM235.894 132.022C235.513 132.022 235.164 131.949 234.849 131.802C234.534 131.648 234.262 131.439 234.035 131.175C233.815 130.904 233.643 130.592 233.518 130.24C233.393 129.888 233.331 129.51 233.331 129.107C233.331 128.682 233.397 128.289 233.529 127.93C233.661 127.571 233.844 127.255 234.079 126.984C234.321 126.705 234.603 126.493 234.926 126.346C235.256 126.192 235.619 126.115 236.015 126.115C236.448 126.115 236.829 126.21 237.159 126.401C237.489 126.584 237.753 126.841 237.951 127.171V126.225H239.48V131.604C239.48 132.191 239.337 132.697 239.051 133.122C238.772 133.547 238.38 133.874 237.874 134.101C237.375 134.336 236.796 134.453 236.136 134.453C235.52 134.453 234.988 134.35 234.541 134.145C234.101 133.947 233.716 133.665 233.386 133.298L234.332 132.341C234.545 132.583 234.809 132.774 235.124 132.913C235.439 133.06 235.777 133.133 236.136 133.133C236.422 133.133 236.686 133.082 236.928 132.979C237.17 132.876 237.361 132.711 237.5 132.484C237.647 132.257 237.72 131.963 237.72 131.604V131.043C237.544 131.358 237.287 131.6 236.95 131.769C236.62 131.938 236.268 132.022 235.894 132.022ZM236.499 130.625C236.638 130.625 236.767 130.607 236.884 130.57C237.009 130.526 237.122 130.471 237.225 130.405C237.328 130.332 237.423 130.247 237.511 130.152C237.599 130.049 237.669 129.939 237.72 129.822V128.612C237.647 128.407 237.54 128.231 237.401 128.084C237.262 127.93 237.108 127.813 236.939 127.732C236.77 127.651 236.594 127.611 236.411 127.611C236.228 127.611 236.055 127.651 235.894 127.732C235.733 127.813 235.593 127.93 235.476 128.084C235.366 128.231 235.278 128.396 235.212 128.579C235.153 128.762 235.124 128.953 235.124 129.151C235.124 129.364 235.157 129.558 235.223 129.734C235.296 129.91 235.395 130.068 235.52 130.207C235.645 130.339 235.791 130.442 235.96 130.515C236.129 130.588 236.308 130.625 236.499 130.625ZM240.686 132V126.225H242.446V132H240.686ZM240.686 125.565V123.97H242.446V125.565H240.686ZM247.314 127.732C246.889 127.732 246.504 127.802 246.159 127.941C245.814 128.073 245.565 128.271 245.411 128.535V132H243.651V126.225H245.268V127.391C245.466 127.002 245.723 126.698 246.038 126.478C246.353 126.258 246.683 126.144 247.028 126.137C247.109 126.137 247.167 126.137 247.204 126.137C247.248 126.137 247.285 126.141 247.314 126.148V127.732ZM248.055 132V126.225H249.815V132H248.055ZM248.055 125.565V123.97H249.815V125.565H248.055ZM260.15 132H258.39V128.755C258.39 128.381 258.32 128.106 258.181 127.93C258.042 127.754 257.862 127.666 257.642 127.666C257.407 127.666 257.176 127.761 256.949 127.952C256.722 128.143 256.56 128.388 256.465 128.689V132H254.705V128.755C254.705 128.374 254.635 128.099 254.496 127.93C254.357 127.754 254.177 127.666 253.957 127.666C253.73 127.666 253.502 127.761 253.275 127.952C253.048 128.143 252.883 128.388 252.78 128.689V132H251.02V126.225H252.604V127.193C252.817 126.848 253.103 126.584 253.462 126.401C253.829 126.21 254.254 126.115 254.738 126.115C255.215 126.115 255.581 126.229 255.838 126.456C256.095 126.676 256.26 126.936 256.333 127.237C256.553 126.878 256.843 126.603 257.202 126.412C257.569 126.214 257.979 126.115 258.434 126.115C258.801 126.115 259.098 126.185 259.325 126.324C259.552 126.456 259.725 126.632 259.842 126.852C259.959 127.072 260.04 127.31 260.084 127.567C260.128 127.816 260.15 128.062 260.15 128.304V132ZM260.937 130.273C260.937 129.892 261.044 129.558 261.256 129.272C261.469 128.986 261.762 128.762 262.136 128.601C262.51 128.432 262.939 128.348 263.423 128.348C263.658 128.348 263.889 128.37 264.116 128.414C264.344 128.451 264.542 128.506 264.71 128.579V128.326C264.71 128.011 264.615 127.769 264.424 127.6C264.234 127.431 263.944 127.347 263.555 127.347C263.233 127.347 262.928 127.402 262.642 127.512C262.364 127.622 262.067 127.78 261.751 127.985L261.223 126.863C261.605 126.614 262.001 126.427 262.411 126.302C262.829 126.177 263.269 126.115 263.731 126.115C264.597 126.115 265.268 126.324 265.744 126.742C266.228 127.153 266.47 127.75 266.47 128.535V130.042C266.47 130.218 266.496 130.343 266.547 130.416C266.606 130.482 266.705 130.522 266.844 130.537V132C266.698 132.029 266.558 132.051 266.426 132.066C266.302 132.081 266.192 132.088 266.096 132.088C265.766 132.088 265.513 132.022 265.337 131.89C265.169 131.758 265.062 131.578 265.018 131.351L264.985 131.098C264.729 131.428 264.421 131.681 264.061 131.857C263.709 132.026 263.339 132.11 262.95 132.11C262.569 132.11 262.224 132.029 261.916 131.868C261.616 131.707 261.377 131.487 261.201 131.208C261.025 130.929 260.937 130.618 260.937 130.273ZM264.435 130.493C264.516 130.427 264.582 130.354 264.633 130.273C264.685 130.192 264.71 130.115 264.71 130.042V129.525C264.564 129.466 264.399 129.422 264.215 129.393C264.039 129.356 263.874 129.338 263.72 129.338C263.398 129.338 263.13 129.411 262.917 129.558C262.705 129.697 262.598 129.884 262.598 130.119C262.598 130.251 262.635 130.372 262.708 130.482C262.782 130.592 262.881 130.68 263.005 130.746C263.137 130.812 263.291 130.845 263.467 130.845C263.643 130.845 263.819 130.812 263.995 130.746C264.171 130.68 264.318 130.596 264.435 130.493ZM273.312 132H271.552V128.755C271.552 128.374 271.478 128.099 271.332 127.93C271.192 127.754 271.005 127.666 270.771 127.666C270.609 127.666 270.444 127.71 270.276 127.798C270.107 127.886 269.953 128.007 269.814 128.161C269.682 128.315 269.579 128.491 269.506 128.689V132H267.746V126.225H269.33V127.193C269.476 126.966 269.66 126.771 269.88 126.61C270.1 126.449 270.353 126.328 270.639 126.247C270.925 126.159 271.236 126.115 271.574 126.115C271.948 126.115 272.248 126.185 272.476 126.324C272.71 126.456 272.886 126.632 273.004 126.852C273.128 127.072 273.209 127.31 273.246 127.567C273.29 127.816 273.312 128.062 273.312 128.304V132Z" fill="white"/>
<path d="M152.031 86.0547V90.5625C151.854 90.776 151.581 91.0078 151.211 91.2578C150.841 91.5026 150.365 91.7135 149.781 91.8906C149.198 92.0677 148.492 92.1562 147.664 92.1562C146.93 92.1562 146.26 92.0365 145.656 91.7969C145.052 91.5521 144.531 91.1953 144.094 90.7266C143.661 90.2578 143.328 89.6849 143.094 89.0078C142.859 88.3255 142.742 87.5469 142.742 86.6719V85.9609C142.742 85.0859 142.854 84.3073 143.078 83.625C143.307 82.9427 143.633 82.3672 144.055 81.8984C144.477 81.4297 144.979 81.0729 145.562 80.8281C146.146 80.5833 146.794 80.4609 147.508 80.4609C148.497 80.4609 149.31 80.6224 149.945 80.9453C150.581 81.263 151.065 81.7057 151.398 82.2734C151.737 82.8359 151.945 83.4818 152.023 84.2109H149.75C149.693 83.8255 149.583 83.4896 149.422 83.2031C149.26 82.9167 149.029 82.6927 148.727 82.5312C148.43 82.3698 148.044 82.2891 147.57 82.2891C147.18 82.2891 146.831 82.3698 146.523 82.5312C146.221 82.6875 145.966 82.9193 145.758 83.2266C145.549 83.5339 145.391 83.9141 145.281 84.3672C145.172 84.8203 145.117 85.3464 145.117 85.9453V86.6719C145.117 87.2656 145.174 87.7917 145.289 88.25C145.404 88.7031 145.573 89.0859 145.797 89.3984C146.026 89.7057 146.307 89.9375 146.641 90.0938C146.974 90.25 147.362 90.3281 147.805 90.3281C148.174 90.3281 148.482 90.2969 148.727 90.2344C148.977 90.1719 149.177 90.0964 149.328 90.0078C149.484 89.9141 149.604 89.8255 149.688 89.7422V87.7266H147.547V86.0547H152.031ZM153.922 80.625H158.164C159.034 80.625 159.781 80.7552 160.406 81.0156C161.036 81.276 161.521 81.6615 161.859 82.1719C162.198 82.6823 162.367 83.3099 162.367 84.0547C162.367 84.6641 162.263 85.1875 162.055 85.625C161.852 86.0573 161.562 86.4193 161.188 86.7109C160.818 86.9974 160.383 87.2266 159.883 87.3984L159.141 87.7891H155.453L155.438 85.9609H158.18C158.591 85.9609 158.932 85.888 159.203 85.7422C159.474 85.5964 159.677 85.3932 159.812 85.1328C159.953 84.8724 160.023 84.5703 160.023 84.2266C160.023 83.862 159.956 83.5469 159.82 83.2812C159.685 83.0156 159.479 82.8125 159.203 82.6719C158.927 82.5312 158.581 82.4609 158.164 82.4609H156.266V92H153.922V80.625ZM160.281 92L157.688 86.9297L160.164 86.9141L162.789 91.8906V92H160.281ZM168.797 82.5703L165.703 92H163.211L167.438 80.625H169.023L168.797 82.5703ZM171.367 92L168.266 82.5703L168.016 80.625H169.617L173.867 92H171.367ZM171.227 87.7656V89.6016H165.219V87.7656H171.227ZM179.039 80.625V92H176.703V80.625H179.039ZM182.539 80.625V82.4609H173.258V80.625H182.539ZM186.367 80.625V92H184.031V80.625H186.367ZM194.484 89.0234C194.484 88.8203 194.453 88.638 194.391 88.4766C194.333 88.3099 194.224 88.1589 194.062 88.0234C193.901 87.8828 193.674 87.7448 193.383 87.6094C193.091 87.474 192.714 87.3333 192.25 87.1875C191.734 87.0208 191.245 86.8333 190.781 86.625C190.323 86.4167 189.917 86.1745 189.562 85.8984C189.214 85.6172 188.938 85.2917 188.734 84.9219C188.536 84.5521 188.438 84.1224 188.438 83.6328C188.438 83.1589 188.542 82.7292 188.75 82.3438C188.958 81.9531 189.25 81.6198 189.625 81.3438C190 81.0625 190.443 80.8464 190.953 80.6953C191.469 80.5443 192.034 80.4688 192.648 80.4688C193.487 80.4688 194.219 80.6198 194.844 80.9219C195.469 81.224 195.953 81.638 196.297 82.1641C196.646 82.6901 196.82 83.2917 196.82 83.9688H194.492C194.492 83.6354 194.422 83.3438 194.281 83.0938C194.146 82.8385 193.938 82.638 193.656 82.4922C193.38 82.3464 193.031 82.2734 192.609 82.2734C192.203 82.2734 191.865 82.3359 191.594 82.4609C191.323 82.5807 191.12 82.7448 190.984 82.9531C190.849 83.1562 190.781 83.3854 190.781 83.6406C190.781 83.8333 190.828 84.0078 190.922 84.1641C191.021 84.3203 191.167 84.4661 191.359 84.6016C191.552 84.737 191.789 84.8646 192.07 84.9844C192.352 85.1042 192.677 85.2214 193.047 85.3359C193.667 85.5234 194.211 85.7344 194.68 85.9688C195.154 86.2031 195.549 86.4661 195.867 86.7578C196.185 87.0495 196.424 87.3802 196.586 87.75C196.747 88.1198 196.828 88.5391 196.828 89.0078C196.828 89.5026 196.732 89.9453 196.539 90.3359C196.346 90.7266 196.068 91.0573 195.703 91.3281C195.339 91.599 194.904 91.8047 194.398 91.9453C193.893 92.0859 193.328 92.1562 192.703 92.1562C192.141 92.1562 191.586 92.0833 191.039 91.9375C190.492 91.7865 189.995 91.5599 189.547 91.2578C189.104 90.9557 188.75 90.5703 188.484 90.1016C188.219 89.6328 188.086 89.0781 188.086 88.4375H190.438C190.438 88.7917 190.492 89.0911 190.602 89.3359C190.711 89.5807 190.865 89.7786 191.062 89.9297C191.266 90.0807 191.505 90.1901 191.781 90.2578C192.062 90.3255 192.37 90.3594 192.703 90.3594C193.109 90.3594 193.443 90.3021 193.703 90.1875C193.969 90.0729 194.164 89.9141 194.289 89.7109C194.419 89.5078 194.484 89.2786 194.484 89.0234ZM152.359 105.047V105.586C152.359 106.451 152.242 107.227 152.008 107.914C151.773 108.602 151.443 109.188 151.016 109.672C150.589 110.151 150.078 110.518 149.484 110.773C148.896 111.029 148.242 111.156 147.523 111.156C146.81 111.156 146.156 111.029 145.562 110.773C144.974 110.518 144.464 110.151 144.031 109.672C143.599 109.188 143.263 108.602 143.023 107.914C142.789 107.227 142.672 106.451 142.672 105.586V105.047C142.672 104.177 142.789 103.401 143.023 102.719C143.258 102.031 143.589 101.445 144.016 100.961C144.448 100.477 144.958 100.107 145.547 99.8516C146.141 99.5964 146.794 99.4688 147.508 99.4688C148.227 99.4688 148.88 99.5964 149.469 99.8516C150.062 100.107 150.573 100.477 151 100.961C151.432 101.445 151.766 102.031 152 102.719C152.24 103.401 152.359 104.177 152.359 105.047ZM149.992 105.586V105.031C149.992 104.427 149.938 103.896 149.828 103.438C149.719 102.979 149.557 102.594 149.344 102.281C149.13 101.969 148.87 101.734 148.562 101.578C148.255 101.417 147.904 101.336 147.508 101.336C147.112 101.336 146.76 101.417 146.453 101.578C146.151 101.734 145.893 101.969 145.68 102.281C145.471 102.594 145.312 102.979 145.203 103.438C145.094 103.896 145.039 104.427 145.039 105.031V105.586C145.039 106.185 145.094 106.716 145.203 107.18C145.312 107.638 145.474 108.026 145.688 108.344C145.901 108.656 146.161 108.893 146.469 109.055C146.776 109.216 147.128 109.297 147.523 109.297C147.919 109.297 148.271 109.216 148.578 109.055C148.885 108.893 149.143 108.656 149.352 108.344C149.56 108.026 149.719 107.638 149.828 107.18C149.938 106.716 149.992 106.185 149.992 105.586ZM163.305 99.625V111H160.961L156.391 103.375V111H154.047V99.625H156.391L160.969 107.258V99.625H163.305ZM174.359 105.055V109.562C174.182 109.776 173.909 110.008 173.539 110.258C173.169 110.503 172.693 110.714 172.109 110.891C171.526 111.068 170.82 111.156 169.992 111.156C169.258 111.156 168.589 111.036 167.984 110.797C167.38 110.552 166.859 110.195 166.422 109.727C165.99 109.258 165.656 108.685 165.422 108.008C165.188 107.326 165.07 106.547 165.07 105.672V104.961C165.07 104.086 165.182 103.307 165.406 102.625C165.635 101.943 165.961 101.367 166.383 100.898C166.805 100.43 167.307 100.073 167.891 99.8281C168.474 99.5833 169.122 99.4609 169.836 99.4609C170.826 99.4609 171.638 99.6224 172.273 99.9453C172.909 100.263 173.393 100.706 173.727 101.273C174.065 101.836 174.273 102.482 174.352 103.211H172.078C172.021 102.826 171.911 102.49 171.75 102.203C171.589 101.917 171.357 101.693 171.055 101.531C170.758 101.37 170.372 101.289 169.898 101.289C169.508 101.289 169.159 101.37 168.852 101.531C168.549 101.688 168.294 101.919 168.086 102.227C167.878 102.534 167.719 102.914 167.609 103.367C167.5 103.82 167.445 104.346 167.445 104.945V105.672C167.445 106.266 167.503 106.792 167.617 107.25C167.732 107.703 167.901 108.086 168.125 108.398C168.354 108.706 168.635 108.938 168.969 109.094C169.302 109.25 169.69 109.328 170.133 109.328C170.503 109.328 170.81 109.297 171.055 109.234C171.305 109.172 171.505 109.096 171.656 109.008C171.812 108.914 171.932 108.826 172.016 108.742V106.727H169.875V105.055H174.359ZM178.594 99.625V111H176.25V99.625H178.594ZM185.406 99.625L180.898 105.242L178.297 108.039L177.875 105.82L179.633 103.414L182.531 99.625H185.406ZM182.742 111L179.391 105.742L181.125 104.289L185.516 111H182.742ZM188.914 99.625V111H186.578V99.625H188.914ZM191.109 99.625H195.352C196.221 99.625 196.969 99.7552 197.594 100.016C198.224 100.276 198.708 100.661 199.047 101.172C199.385 101.682 199.555 102.31 199.555 103.055C199.555 103.664 199.451 104.188 199.242 104.625C199.039 105.057 198.75 105.419 198.375 105.711C198.005 105.997 197.57 106.227 197.07 106.398L196.328 106.789H192.641L192.625 104.961H195.367C195.779 104.961 196.12 104.888 196.391 104.742C196.661 104.596 196.865 104.393 197 104.133C197.141 103.872 197.211 103.57 197.211 103.227C197.211 102.862 197.143 102.547 197.008 102.281C196.872 102.016 196.667 101.812 196.391 101.672C196.115 101.531 195.768 101.461 195.352 101.461H193.453V111H191.109V99.625ZM197.469 111L194.875 105.93L197.352 105.914L199.977 110.891V111H197.469Z" fill="white"/>
<path d="M203.793 79.7188H215.459C217.851 79.7188 219.906 80.0768 221.625 80.793C223.358 81.5091 224.69 82.569 225.621 83.9727C226.552 85.3763 227.018 87.1022 227.018 89.1504C227.018 90.8262 226.731 92.2656 226.158 93.4688C225.6 94.6576 224.805 95.653 223.773 96.4551C222.757 97.2428 221.561 97.873 220.186 98.3457L218.145 99.4199H208.004L207.961 94.3926H215.502C216.633 94.3926 217.572 94.1921 218.316 93.791C219.061 93.39 219.62 92.8314 219.992 92.1152C220.379 91.3991 220.572 90.5684 220.572 89.623C220.572 88.6204 220.386 87.7539 220.014 87.0234C219.641 86.293 219.076 85.7344 218.316 85.3477C217.557 84.9609 216.605 84.7676 215.459 84.7676H210.238V111H203.793V79.7188ZM221.281 111L214.148 97.0566L220.959 97.0137L228.178 110.699V111H221.281ZM244.162 99.8496H236.191V94.8223H244.162C245.394 94.8223 246.396 94.6217 247.17 94.2207C247.943 93.8053 248.509 93.2324 248.867 92.502C249.225 91.7715 249.404 90.9479 249.404 90.0312C249.404 89.1003 249.225 88.2337 248.867 87.4316C248.509 86.6296 247.943 85.985 247.17 85.498C246.396 85.0111 245.394 84.7676 244.162 84.7676H238.426V111H231.98V79.7188H244.162C246.611 79.7188 248.71 80.1628 250.457 81.0508C252.219 81.9245 253.565 83.1348 254.496 84.6816C255.427 86.2285 255.893 87.9974 255.893 89.9883C255.893 92.0078 255.427 93.7552 254.496 95.2305C253.565 96.7057 252.219 97.8444 250.457 98.6465C248.71 99.4486 246.611 99.8496 244.162 99.8496ZM280.75 92.6094V98.0234C280.75 100.372 280.499 102.399 279.998 104.104C279.497 105.794 278.773 107.183 277.828 108.271C276.897 109.346 275.787 110.141 274.498 110.656C273.209 111.172 271.777 111.43 270.201 111.43C268.941 111.43 267.766 111.272 266.678 110.957C265.589 110.628 264.608 110.119 263.734 109.432C262.875 108.744 262.13 107.878 261.5 106.832C260.884 105.772 260.411 104.512 260.082 103.051C259.753 101.59 259.588 99.9141 259.588 98.0234V92.6094C259.588 90.2604 259.839 88.248 260.34 86.5723C260.855 84.8822 261.579 83.5 262.51 82.4258C263.455 81.3516 264.572 80.5638 265.861 80.0625C267.15 79.5469 268.583 79.2891 270.158 79.2891C271.419 79.2891 272.586 79.4538 273.66 79.7832C274.749 80.0983 275.73 80.5924 276.604 81.2656C277.477 81.9388 278.222 82.8053 278.838 83.8652C279.454 84.9108 279.926 86.1641 280.256 87.625C280.585 89.0716 280.75 90.7331 280.75 92.6094ZM274.541 98.8398V91.7715C274.541 90.64 274.477 89.6517 274.348 88.8066C274.233 87.9616 274.054 87.2454 273.811 86.6582C273.567 86.0566 273.266 85.5697 272.908 85.1973C272.55 84.8249 272.142 84.5527 271.684 84.3809C271.225 84.209 270.717 84.123 270.158 84.123C269.456 84.123 268.833 84.2591 268.289 84.5312C267.759 84.8034 267.308 85.2402 266.936 85.8418C266.563 86.429 266.277 87.2168 266.076 88.2051C265.89 89.179 265.797 90.3678 265.797 91.7715V98.8398C265.797 99.9714 265.854 100.967 265.969 101.826C266.098 102.686 266.284 103.423 266.527 104.039C266.785 104.641 267.086 105.135 267.43 105.521C267.788 105.894 268.196 106.166 268.654 106.338C269.127 106.51 269.643 106.596 270.201 106.596C270.889 106.596 271.497 106.46 272.027 106.188C272.572 105.901 273.03 105.457 273.402 104.855C273.789 104.24 274.076 103.438 274.262 102.449C274.448 101.461 274.541 100.258 274.541 98.8398Z" fill="#FFE600"/>
<defs>
<linearGradient id="paint0_linear_242_403" x1="214" y1="0" x2="214" y2="180" gradientUnits="userSpaceOnUse">
<stop stop-color="#0091FF"/>
<stop offset="1" stop-color="#50F090"/>
</linearGradient>
</defs>
</svg>
