<svg width="428" height="180" viewBox="0 0 428 180" fill="none" xmlns="http://www.w3.org/2000/svg">
<rect width="428" height="180" fill="url(#paint0_linear_242_403)"/>
<line y1="40.8" x2="48.8846" y2="40.8" stroke="#FFE500" stroke-width="2"/>
<line x1="379.115" y1="159.2" x2="428" y2="159.2" stroke="#FFE500" stroke-width="2"/>
<rect x="394" y="116.6" width="43.3333" height="5.6" rx="2.8" transform="rotate(-180 394 116.6)" fill="#E2E0E0" fill-opacity="0.5"/>
<ellipse cx="345.25" cy="120.8" rx="3.25" ry="4.2" transform="rotate(-180 345.25 120.8)" fill="#E2E0E0" fill-opacity="0.5"/>
<rect x="44" y="90.2" width="39.1667" height="4.8" rx="2.4" fill="#E2E2E2" fill-opacity="0.6"/>
<ellipse cx="88.0625" cy="86.6" rx="2.9375" ry="3.6" fill="#E2E2E2" fill-opacity="0.6"/>
<path d="M42.8248 141H0V160H45.3943C47.9638 160 47.9638 156.2 45.3943 156.2H29.9774C28.2644 156.2 28.2644 152.4 29.9774 152.4H35.7386C37.6858 152.4 37.6858 148.6 35.7386 148.6H26.5514C24.8384 148.6 24.8384 144.8 26.5514 144.8H42.8248C44.4493 144.8 44.4493 141 42.8248 141Z" fill="#007398" fill-opacity="0.7"/>
<rect x="45.9018" y="141" width="7.09821" height="4.13043" rx="2.06522" fill="#007398" fill-opacity="0.7"/>
<rect x="38.3304" y="148.435" width="7.09821" height="4.13043" rx="2.06522" fill="#007398" fill-opacity="0.7"/>
<path d="M397.295 49L428 49V33.4L395.453 33.4C393.611 33.4 393.611 36.52 395.453 36.52H406.507C407.735 36.52 407.735 39.64 406.507 39.64H402.376C400.98 39.64 400.98 42.76 402.376 42.76H408.963C410.191 42.76 410.191 45.88 408.963 45.88H397.295C396.131 45.88 396.131 49 397.295 49Z" fill="#04FFF0" fill-opacity="0.7"/>
<rect x="395.089" y="49" width="5.08929" height="3.39129" rx="1.69565" transform="rotate(-180 395.089 49)" fill="#04FFF0" fill-opacity="0.7"/>
<rect x="400.518" y="42.8958" width="5.08929" height="3.39129" rx="1.69565" transform="rotate(-180 400.518 42.8958)" fill="#04FFF0" fill-opacity="0.7"/>
<rect x="138" y="116" width="156" height="28" rx="10" fill="#007398"/>
<path d="M152.928 126.976C152.904 126.936 152.82 126.876 152.676 126.796C152.532 126.708 152.352 126.616 152.136 126.52C151.92 126.424 151.684 126.34 151.428 126.268C151.172 126.196 150.916 126.16 150.66 126.16C150.324 126.16 150.064 126.22 149.88 126.34C149.696 126.452 149.604 126.628 149.604 126.868C149.604 127.06 149.672 127.212 149.808 127.324C149.952 127.436 150.156 127.536 150.42 127.624C150.684 127.704 151.008 127.8 151.392 127.912C151.936 128.056 152.408 128.232 152.808 128.44C153.208 128.64 153.512 128.9 153.72 129.22C153.936 129.54 154.044 129.964 154.044 130.492C154.044 130.972 153.956 131.38 153.78 131.716C153.604 132.044 153.364 132.312 153.06 132.52C152.764 132.72 152.424 132.868 152.04 132.964C151.656 133.052 151.26 133.096 150.852 133.096C150.436 133.096 150.008 133.056 149.568 132.976C149.136 132.888 148.72 132.768 148.32 132.616C147.92 132.456 147.552 132.264 147.216 132.04L148.08 130.324C148.112 130.364 148.216 130.44 148.392 130.552C148.568 130.656 148.784 130.768 149.04 130.888C149.304 131 149.596 131.1 149.916 131.188C150.236 131.276 150.56 131.32 150.888 131.32C151.24 131.32 151.5 131.264 151.668 131.152C151.844 131.04 151.932 130.884 151.932 130.684C151.932 130.468 151.84 130.3 151.656 130.18C151.48 130.06 151.236 129.952 150.924 129.856C150.62 129.76 150.268 129.652 149.868 129.532C149.348 129.372 148.916 129.192 148.572 128.992C148.236 128.792 147.984 128.548 147.816 128.26C147.656 127.972 147.576 127.612 147.576 127.18C147.576 126.58 147.716 126.076 147.996 125.668C148.284 125.252 148.668 124.94 149.148 124.732C149.628 124.516 150.152 124.408 150.72 124.408C151.12 124.408 151.504 124.456 151.872 124.552C152.248 124.648 152.596 124.768 152.916 124.912C153.244 125.056 153.536 125.2 153.792 125.344L152.928 126.976ZM158.055 133.12C157.519 133.12 157.043 133.036 156.627 132.868C156.211 132.692 155.855 132.456 155.559 132.16C155.271 131.864 155.051 131.524 154.899 131.14C154.747 130.748 154.671 130.34 154.671 129.916C154.671 129.308 154.803 128.756 155.067 128.26C155.339 127.756 155.727 127.352 156.231 127.048C156.735 126.736 157.343 126.58 158.055 126.58C158.767 126.58 159.371 126.732 159.867 127.036C160.371 127.34 160.755 127.74 161.019 128.236C161.283 128.724 161.415 129.256 161.415 129.832C161.415 129.944 161.407 130.056 161.391 130.168C161.383 130.272 161.375 130.364 161.367 130.444H156.711C156.735 130.724 156.811 130.96 156.939 131.152C157.075 131.344 157.247 131.492 157.455 131.596C157.663 131.692 157.883 131.74 158.115 131.74C158.403 131.74 158.671 131.672 158.919 131.536C159.175 131.4 159.351 131.216 159.447 130.984L161.079 131.44C160.919 131.768 160.691 132.06 160.395 132.316C160.107 132.564 159.763 132.76 159.363 132.904C158.971 133.048 158.535 133.12 158.055 133.12ZM156.663 129.268H159.399C159.367 129.004 159.291 128.776 159.171 128.584C159.051 128.384 158.891 128.232 158.691 128.128C158.491 128.016 158.271 127.96 158.031 127.96C157.783 127.96 157.559 128.016 157.359 128.128C157.167 128.232 157.011 128.384 156.891 128.584C156.771 128.776 156.695 129.004 156.663 129.268ZM172.245 133H170.325V129.46C170.325 129.052 170.249 128.752 170.097 128.56C169.945 128.368 169.749 128.272 169.509 128.272C169.253 128.272 169.001 128.376 168.753 128.584C168.505 128.792 168.329 129.06 168.225 129.388V133H166.305V129.46C166.305 129.044 166.229 128.744 166.077 128.56C165.925 128.368 165.729 128.272 165.489 128.272C165.241 128.272 164.993 128.376 164.745 128.584C164.497 128.792 164.317 129.06 164.205 129.388V133H162.285V126.7H164.013V127.756C164.245 127.38 164.557 127.092 164.949 126.892C165.349 126.684 165.813 126.58 166.341 126.58C166.861 126.58 167.261 126.704 167.541 126.952C167.821 127.192 168.001 127.476 168.081 127.804C168.321 127.412 168.637 127.112 169.029 126.904C169.429 126.688 169.877 126.58 170.373 126.58C170.773 126.58 171.097 126.656 171.345 126.808C171.593 126.952 171.781 127.144 171.909 127.384C172.037 127.624 172.125 127.884 172.173 128.164C172.221 128.436 172.245 128.704 172.245 128.968V133ZM173.44 130.732V126.7H175.36V130.312C175.36 130.696 175.436 130.992 175.588 131.2C175.74 131.4 175.956 131.5 176.236 131.5C176.412 131.5 176.58 131.472 176.74 131.416C176.9 131.352 177.056 131.252 177.208 131.116C177.36 130.98 177.496 130.804 177.616 130.588V126.7H179.536V130.864C179.536 131.056 179.564 131.192 179.62 131.272C179.684 131.344 179.792 131.388 179.944 131.404V133C179.768 133.032 179.612 133.056 179.476 133.072C179.348 133.088 179.232 133.096 179.128 133.096C178.792 133.096 178.524 133.028 178.324 132.892C178.124 132.748 178 132.548 177.952 132.292L177.916 131.908C177.628 132.324 177.268 132.632 176.836 132.832C176.412 133.024 175.936 133.12 175.408 133.12C174.768 133.12 174.28 132.916 173.944 132.508C173.608 132.1 173.44 131.508 173.44 130.732ZM180.627 131.116C180.627 130.7 180.743 130.336 180.975 130.024C181.207 129.712 181.527 129.468 181.935 129.292C182.343 129.108 182.811 129.016 183.339 129.016C183.595 129.016 183.847 129.04 184.095 129.088C184.343 129.128 184.559 129.188 184.743 129.268V128.992C184.743 128.648 184.639 128.384 184.431 128.2C184.223 128.016 183.907 127.924 183.483 127.924C183.131 127.924 182.799 127.984 182.487 128.104C182.183 128.224 181.859 128.396 181.515 128.62L180.939 127.396C181.355 127.124 181.787 126.92 182.235 126.784C182.691 126.648 183.171 126.58 183.675 126.58C184.619 126.58 185.351 126.808 185.871 127.264C186.399 127.712 186.663 128.364 186.663 129.22V130.864C186.663 131.056 186.691 131.192 186.747 131.272C186.811 131.344 186.919 131.388 187.071 131.404V133C186.911 133.032 186.759 133.056 186.615 133.072C186.479 133.088 186.359 133.096 186.255 133.096C185.895 133.096 185.619 133.024 185.427 132.88C185.243 132.736 185.127 132.54 185.079 132.292L185.043 132.016C184.763 132.376 184.427 132.652 184.035 132.844C183.651 133.028 183.247 133.12 182.823 133.12C182.407 133.12 182.031 133.032 181.695 132.856C181.367 132.68 181.107 132.44 180.915 132.136C180.723 131.832 180.627 131.492 180.627 131.116ZM184.443 131.356C184.531 131.284 184.603 131.204 184.659 131.116C184.715 131.028 184.743 130.944 184.743 130.864V130.3C184.583 130.236 184.403 130.188 184.203 130.156C184.011 130.116 183.831 130.096 183.663 130.096C183.311 130.096 183.019 130.176 182.787 130.336C182.555 130.488 182.439 130.692 182.439 130.948C182.439 131.092 182.479 131.224 182.559 131.344C182.639 131.464 182.747 131.56 182.883 131.632C183.027 131.704 183.195 131.74 183.387 131.74C183.579 131.74 183.771 131.704 183.963 131.632C184.155 131.56 184.315 131.468 184.443 131.356Z" fill="#FFE500"/>
<path d="M194.743 133.072C194.103 133.072 193.523 132.952 193.003 132.712C192.491 132.464 192.047 132.136 191.671 131.728C191.303 131.312 191.019 130.848 190.819 130.336C190.619 129.816 190.519 129.28 190.519 128.728C190.519 128.16 190.623 127.62 190.831 127.108C191.047 126.596 191.343 126.14 191.719 125.74C192.103 125.332 192.555 125.012 193.075 124.78C193.595 124.548 194.163 124.432 194.779 124.432C195.411 124.432 195.983 124.556 196.495 124.804C197.015 125.044 197.459 125.372 197.827 125.788C198.203 126.204 198.491 126.672 198.691 127.192C198.891 127.704 198.991 128.228 198.991 128.764C198.991 129.332 198.887 129.872 198.679 130.384C198.471 130.896 198.175 131.356 197.791 131.764C197.407 132.164 196.955 132.484 196.435 132.724C195.923 132.956 195.359 133.072 194.743 133.072ZM192.523 128.752C192.523 129.08 192.571 129.4 192.667 129.712C192.763 130.016 192.903 130.288 193.087 130.528C193.279 130.768 193.515 130.96 193.795 131.104C194.075 131.248 194.395 131.32 194.755 131.32C195.131 131.32 195.459 131.248 195.739 131.104C196.019 130.952 196.251 130.752 196.435 130.504C196.619 130.256 196.755 129.98 196.843 129.676C196.939 129.364 196.987 129.048 196.987 128.728C196.987 128.4 196.939 128.084 196.843 127.78C196.747 127.476 196.603 127.204 196.411 126.964C196.219 126.716 195.983 126.524 195.703 126.388C195.423 126.252 195.107 126.184 194.755 126.184C194.379 126.184 194.051 126.256 193.771 126.4C193.499 126.544 193.267 126.74 193.075 126.988C192.891 127.228 192.751 127.504 192.655 127.816C192.567 128.12 192.523 128.432 192.523 128.752ZM203.898 133.12C203.426 133.12 203.014 133.02 202.662 132.82C202.31 132.612 202.034 132.332 201.834 131.98V135.556H199.914V126.7H201.582V127.72C201.814 127.36 202.106 127.08 202.458 126.88C202.81 126.68 203.222 126.58 203.694 126.58C204.118 126.58 204.506 126.664 204.858 126.832C205.218 127 205.53 127.232 205.794 127.528C206.058 127.824 206.262 128.168 206.406 128.56C206.55 128.952 206.622 129.376 206.622 129.832C206.622 130.456 206.506 131.016 206.274 131.512C206.042 132.008 205.718 132.4 205.302 132.688C204.894 132.976 204.426 133.12 203.898 133.12ZM203.25 131.5C203.458 131.5 203.646 131.456 203.814 131.368C203.99 131.272 204.142 131.148 204.27 130.996C204.398 130.844 204.494 130.668 204.558 130.468C204.63 130.26 204.666 130.044 204.666 129.82C204.666 129.588 204.626 129.376 204.546 129.184C204.474 128.992 204.37 128.824 204.234 128.68C204.098 128.528 203.938 128.412 203.754 128.332C203.57 128.252 203.37 128.212 203.154 128.212C203.026 128.212 202.894 128.232 202.758 128.272C202.63 128.312 202.506 128.372 202.386 128.452C202.274 128.524 202.17 128.612 202.074 128.716C201.978 128.82 201.898 128.94 201.834 129.076V130.372C201.922 130.588 202.038 130.78 202.182 130.948C202.326 131.116 202.49 131.252 202.674 131.356C202.858 131.452 203.05 131.5 203.25 131.5ZM210.002 133.12C209.466 133.12 208.942 133.032 208.43 132.856C207.918 132.68 207.486 132.42 207.134 132.076L207.794 130.864C208.178 131.144 208.55 131.356 208.91 131.5C209.278 131.644 209.622 131.716 209.942 131.716C210.19 131.716 210.382 131.676 210.518 131.596C210.654 131.516 210.722 131.392 210.722 131.224C210.722 131.104 210.682 131.012 210.602 130.948C210.522 130.876 210.398 130.812 210.23 130.756C210.07 130.7 209.87 130.64 209.63 130.576C209.15 130.416 208.75 130.26 208.43 130.108C208.11 129.956 207.87 129.772 207.71 129.556C207.55 129.332 207.47 129.044 207.47 128.692C207.47 128.268 207.574 127.9 207.782 127.588C207.998 127.268 208.302 127.02 208.694 126.844C209.086 126.668 209.554 126.58 210.098 126.58C210.53 126.58 210.95 126.648 211.358 126.784C211.774 126.92 212.162 127.148 212.522 127.468L211.778 128.668C211.418 128.42 211.098 128.24 210.818 128.128C210.538 128.016 210.266 127.96 210.002 127.96C209.866 127.96 209.742 127.976 209.63 128.008C209.518 128.04 209.426 128.096 209.354 128.176C209.29 128.248 209.258 128.344 209.258 128.464C209.258 128.584 209.29 128.68 209.354 128.752C209.426 128.824 209.534 128.888 209.678 128.944C209.83 128.992 210.018 129.052 210.242 129.124C210.762 129.276 211.194 129.432 211.538 129.592C211.882 129.744 212.138 129.936 212.306 130.168C212.482 130.392 212.57 130.692 212.57 131.068C212.57 131.708 212.338 132.212 211.874 132.58C211.418 132.94 210.794 133.12 210.002 133.12ZM213.555 133V126.7H215.475V133H213.555ZM213.555 125.98V124.24H215.475V125.98H213.555ZM219.746 133V124.48H223.382C223.79 124.48 224.162 124.564 224.498 124.732C224.842 124.892 225.138 125.112 225.386 125.392C225.634 125.664 225.826 125.972 225.962 126.316C226.098 126.66 226.166 127.012 226.166 127.372C226.166 127.86 226.05 128.324 225.818 128.764C225.594 129.204 225.278 129.564 224.87 129.844C224.47 130.116 223.994 130.252 223.442 130.252H221.714V133H219.746ZM221.714 128.536H223.322C223.474 128.536 223.614 128.492 223.742 128.404C223.87 128.316 223.974 128.184 224.054 128.008C224.134 127.832 224.174 127.616 224.174 127.36C224.174 127.096 224.126 126.88 224.03 126.712C223.942 126.536 223.826 126.408 223.682 126.328C223.546 126.248 223.402 126.208 223.25 126.208H221.714V128.536ZM229.949 133.12C229.413 133.12 228.937 133.036 228.521 132.868C228.105 132.692 227.749 132.456 227.453 132.16C227.165 131.864 226.945 131.524 226.793 131.14C226.641 130.748 226.565 130.34 226.565 129.916C226.565 129.308 226.697 128.756 226.961 128.26C227.233 127.756 227.621 127.352 228.125 127.048C228.629 126.736 229.237 126.58 229.949 126.58C230.661 126.58 231.265 126.732 231.761 127.036C232.265 127.34 232.649 127.74 232.913 128.236C233.177 128.724 233.309 129.256 233.309 129.832C233.309 129.944 233.301 130.056 233.285 130.168C233.277 130.272 233.269 130.364 233.261 130.444H228.605C228.629 130.724 228.705 130.96 228.833 131.152C228.969 131.344 229.141 131.492 229.349 131.596C229.557 131.692 229.777 131.74 230.009 131.74C230.297 131.74 230.565 131.672 230.813 131.536C231.069 131.4 231.245 131.216 231.341 130.984L232.973 131.44C232.813 131.768 232.585 132.06 232.289 132.316C232.001 132.564 231.657 132.76 231.257 132.904C230.865 133.048 230.429 133.12 229.949 133.12ZM228.557 129.268H231.293C231.261 129.004 231.185 128.776 231.065 128.584C230.945 128.384 230.785 128.232 230.585 128.128C230.385 128.016 230.165 127.96 229.925 127.96C229.677 127.96 229.453 128.016 229.253 128.128C229.061 128.232 228.905 128.384 228.785 128.584C228.665 128.776 228.589 129.004 228.557 129.268ZM240.252 133H238.332V129.46C238.332 129.044 238.252 128.744 238.092 128.56C237.94 128.368 237.736 128.272 237.48 128.272C237.304 128.272 237.124 128.32 236.94 128.416C236.756 128.512 236.588 128.644 236.436 128.812C236.292 128.98 236.18 129.172 236.1 129.388V133H234.18V126.7H235.908V127.756C236.068 127.508 236.268 127.296 236.508 127.12C236.748 126.944 237.024 126.812 237.336 126.724C237.648 126.628 237.988 126.58 238.356 126.58C238.764 126.58 239.092 126.656 239.34 126.808C239.596 126.952 239.788 127.144 239.916 127.384C240.052 127.624 240.14 127.884 240.18 128.164C240.228 128.436 240.252 128.704 240.252 128.968V133ZM243.975 133.024C243.559 133.024 243.179 132.944 242.835 132.784C242.491 132.616 242.195 132.388 241.947 132.1C241.707 131.804 241.519 131.464 241.383 131.08C241.247 130.696 241.179 130.284 241.179 129.844C241.179 129.38 241.251 128.952 241.395 128.56C241.539 128.168 241.739 127.824 241.995 127.528C242.259 127.224 242.567 126.992 242.919 126.832C243.279 126.664 243.675 126.58 244.107 126.58C244.579 126.58 244.995 126.684 245.355 126.892C245.715 127.092 246.003 127.372 246.219 127.732V126.7H247.887V132.568C247.887 133.208 247.731 133.76 247.419 134.224C247.115 134.688 246.687 135.044 246.135 135.292C245.591 135.548 244.959 135.676 244.239 135.676C243.567 135.676 242.987 135.564 242.499 135.34C242.019 135.124 241.599 134.816 241.239 134.416L242.271 133.372C242.503 133.636 242.791 133.844 243.135 133.996C243.479 134.156 243.847 134.236 244.239 134.236C244.551 134.236 244.839 134.18 245.103 134.068C245.367 133.956 245.575 133.776 245.727 133.528C245.887 133.28 245.967 132.96 245.967 132.568V131.956C245.775 132.3 245.495 132.564 245.127 132.748C244.767 132.932 244.383 133.024 243.975 133.024ZM244.635 131.5C244.787 131.5 244.927 131.48 245.055 131.44C245.191 131.392 245.315 131.332 245.427 131.26C245.539 131.18 245.643 131.088 245.739 130.984C245.835 130.872 245.911 130.752 245.967 130.624V129.304C245.887 129.08 245.771 128.888 245.619 128.728C245.467 128.56 245.299 128.432 245.115 128.344C244.931 128.256 244.739 128.212 244.539 128.212C244.339 128.212 244.151 128.256 243.975 128.344C243.799 128.432 243.647 128.56 243.519 128.728C243.399 128.888 243.303 129.068 243.231 129.268C243.167 129.468 243.135 129.676 243.135 129.892C243.135 130.124 243.171 130.336 243.243 130.528C243.323 130.72 243.431 130.892 243.567 131.044C243.703 131.188 243.863 131.3 244.047 131.38C244.231 131.46 244.427 131.5 244.635 131.5ZM249.203 133V126.7H251.123V133H249.203ZM249.203 125.98V124.24H251.123V125.98H249.203ZM256.433 128.344C255.969 128.344 255.549 128.42 255.173 128.572C254.797 128.716 254.525 128.932 254.357 129.22V133H252.437V126.7H254.201V127.972C254.417 127.548 254.697 127.216 255.041 126.976C255.385 126.736 255.745 126.612 256.121 126.604C256.209 126.604 256.273 126.604 256.313 126.604C256.361 126.604 256.401 126.608 256.433 126.616V128.344ZM257.242 133V126.7H259.162V133H257.242ZM257.242 125.98V124.24H259.162V125.98H257.242ZM270.436 133H268.516V129.46C268.516 129.052 268.44 128.752 268.288 128.56C268.136 128.368 267.94 128.272 267.7 128.272C267.444 128.272 267.192 128.376 266.944 128.584C266.696 128.792 266.52 129.06 266.416 129.388V133H264.496V129.46C264.496 129.044 264.42 128.744 264.268 128.56C264.116 128.368 263.92 128.272 263.68 128.272C263.432 128.272 263.184 128.376 262.936 128.584C262.688 128.792 262.508 129.06 262.396 129.388V133H260.476V126.7H262.204V127.756C262.436 127.38 262.748 127.092 263.14 126.892C263.54 126.684 264.004 126.58 264.532 126.58C265.052 126.58 265.452 126.704 265.732 126.952C266.012 127.192 266.192 127.476 266.272 127.804C266.512 127.412 266.828 127.112 267.22 126.904C267.62 126.688 268.068 126.58 268.564 126.58C268.964 126.58 269.288 126.656 269.536 126.808C269.784 126.952 269.972 127.144 270.1 127.384C270.228 127.624 270.316 127.884 270.364 128.164C270.412 128.436 270.436 128.704 270.436 128.968V133ZM271.295 131.116C271.295 130.7 271.411 130.336 271.643 130.024C271.875 129.712 272.195 129.468 272.603 129.292C273.011 129.108 273.479 129.016 274.007 129.016C274.263 129.016 274.515 129.04 274.763 129.088C275.011 129.128 275.227 129.188 275.411 129.268V128.992C275.411 128.648 275.307 128.384 275.099 128.2C274.891 128.016 274.575 127.924 274.151 127.924C273.799 127.924 273.467 127.984 273.155 128.104C272.851 128.224 272.527 128.396 272.183 128.62L271.607 127.396C272.023 127.124 272.455 126.92 272.903 126.784C273.359 126.648 273.839 126.58 274.343 126.58C275.287 126.58 276.019 126.808 276.539 127.264C277.067 127.712 277.331 128.364 277.331 129.22V130.864C277.331 131.056 277.359 131.192 277.415 131.272C277.479 131.344 277.587 131.388 277.739 131.404V133C277.579 133.032 277.427 133.056 277.283 133.072C277.147 133.088 277.027 133.096 276.923 133.096C276.563 133.096 276.287 133.024 276.095 132.88C275.911 132.736 275.795 132.54 275.747 132.292L275.711 132.016C275.431 132.376 275.095 132.652 274.703 132.844C274.319 133.028 273.915 133.12 273.491 133.12C273.075 133.12 272.699 133.032 272.363 132.856C272.035 132.68 271.775 132.44 271.583 132.136C271.391 131.832 271.295 131.492 271.295 131.116ZM275.111 131.356C275.199 131.284 275.271 131.204 275.327 131.116C275.383 131.028 275.411 130.944 275.411 130.864V130.3C275.251 130.236 275.071 130.188 274.871 130.156C274.679 130.116 274.499 130.096 274.331 130.096C273.979 130.096 273.687 130.176 273.455 130.336C273.223 130.488 273.107 130.692 273.107 130.948C273.107 131.092 273.147 131.224 273.227 131.344C273.307 131.464 273.415 131.56 273.551 131.632C273.695 131.704 273.863 131.74 274.055 131.74C274.247 131.74 274.439 131.704 274.631 131.632C274.823 131.56 274.983 131.468 275.111 131.356ZM284.795 133H282.875V129.46C282.875 129.044 282.795 128.744 282.635 128.56C282.483 128.368 282.279 128.272 282.023 128.272C281.847 128.272 281.667 128.32 281.483 128.416C281.299 128.512 281.131 128.644 280.979 128.812C280.835 128.98 280.723 129.172 280.643 129.388V133H278.723V126.7H280.451V127.756C280.611 127.508 280.811 127.296 281.051 127.12C281.291 126.944 281.567 126.812 281.879 126.724C282.191 126.628 282.531 126.58 282.899 126.58C283.307 126.58 283.635 126.656 283.883 126.808C284.139 126.952 284.331 127.144 284.459 127.384C284.595 127.624 284.683 127.884 284.723 128.164C284.771 128.436 284.795 128.704 284.795 128.968V133Z" fill="white"/>
<path d="M149.285 83.3115V88.3828C149.086 88.623 148.778 88.8838 148.362 89.165C147.946 89.4404 147.41 89.6777 146.754 89.877C146.098 90.0762 145.304 90.1758 144.372 90.1758C143.546 90.1758 142.793 90.041 142.113 89.7715C141.434 89.4961 140.848 89.0947 140.355 88.5674C139.869 88.04 139.494 87.3955 139.23 86.6338C138.967 85.8662 138.835 84.9902 138.835 84.0059V83.2061C138.835 82.2217 138.961 81.3457 139.213 80.5781C139.471 79.8105 139.837 79.1631 140.312 78.6357C140.786 78.1084 141.352 77.707 142.008 77.4316C142.664 77.1562 143.394 77.0186 144.196 77.0186C145.31 77.0186 146.224 77.2002 146.938 77.5635C147.653 77.9209 148.198 78.4189 148.573 79.0576C148.954 79.6904 149.188 80.417 149.276 81.2373H146.719C146.654 80.8037 146.531 80.4258 146.35 80.1035C146.168 79.7812 145.907 79.5293 145.567 79.3477C145.233 79.166 144.8 79.0752 144.267 79.0752C143.827 79.0752 143.435 79.166 143.089 79.3477C142.749 79.5234 142.462 79.7842 142.228 80.1299C141.993 80.4756 141.814 80.9033 141.691 81.4131C141.568 81.9229 141.507 82.5146 141.507 83.1885V84.0059C141.507 84.6738 141.571 85.2656 141.7 85.7812C141.829 86.291 142.02 86.7217 142.271 87.0732C142.529 87.4189 142.846 87.6797 143.221 87.8555C143.596 88.0312 144.032 88.1191 144.53 88.1191C144.946 88.1191 145.292 88.084 145.567 88.0137C145.849 87.9434 146.074 87.8584 146.244 87.7588C146.42 87.6533 146.555 87.5537 146.648 87.46V85.1924H144.24V83.3115H149.285ZM151.412 77.2031H156.185C157.163 77.2031 158.004 77.3496 158.707 77.6426C159.416 77.9355 159.961 78.3691 160.342 78.9434C160.723 79.5176 160.913 80.2236 160.913 81.0615C160.913 81.7471 160.796 82.3359 160.562 82.8281C160.333 83.3145 160.008 83.7217 159.586 84.0498C159.17 84.3721 158.681 84.6299 158.118 84.8232L157.283 85.2627H153.135L153.117 83.2061H156.202C156.665 83.2061 157.049 83.124 157.354 82.96C157.658 82.7959 157.887 82.5674 158.039 82.2744C158.197 81.9814 158.276 81.6416 158.276 81.2549C158.276 80.8447 158.2 80.4902 158.048 80.1914C157.896 79.8926 157.664 79.6641 157.354 79.5059C157.043 79.3477 156.653 79.2686 156.185 79.2686H154.049V90H151.412V77.2031ZM158.566 90L155.648 84.2959L158.435 84.2783L161.388 89.877V90H158.566ZM168.146 79.3916L164.666 90H161.862L166.617 77.2031H168.401L168.146 79.3916ZM171.038 90L167.549 79.3916L167.268 77.2031H169.069L173.851 90H171.038ZM170.88 85.2363V87.3018H164.121V85.2363H170.88ZM179.669 77.2031V90H177.041V77.2031H179.669ZM183.606 77.2031V79.2686H173.165V77.2031H183.606ZM187.913 77.2031V90H185.285V77.2031H187.913ZM197.045 86.6514C197.045 86.4229 197.01 86.2178 196.939 86.0361C196.875 85.8486 196.752 85.6787 196.57 85.5264C196.389 85.3682 196.134 85.2129 195.806 85.0605C195.478 84.9082 195.053 84.75 194.531 84.5859C193.951 84.3984 193.4 84.1875 192.879 83.9531C192.363 83.7188 191.906 83.4463 191.508 83.1357C191.115 82.8193 190.805 82.4531 190.576 82.0371C190.354 81.6211 190.242 81.1377 190.242 80.5869C190.242 80.0537 190.359 79.5703 190.594 79.1367C190.828 78.6973 191.156 78.3223 191.578 78.0117C192 77.6953 192.498 77.4521 193.072 77.2822C193.652 77.1123 194.288 77.0273 194.979 77.0273C195.923 77.0273 196.746 77.1973 197.449 77.5371C198.152 77.877 198.697 78.3428 199.084 78.9346C199.477 79.5264 199.673 80.2031 199.673 80.9648H197.054C197.054 80.5898 196.975 80.2617 196.816 79.9805C196.664 79.6934 196.43 79.4678 196.113 79.3037C195.803 79.1396 195.41 79.0576 194.936 79.0576C194.479 79.0576 194.098 79.1279 193.793 79.2686C193.488 79.4033 193.26 79.5879 193.107 79.8223C192.955 80.0508 192.879 80.3086 192.879 80.5957C192.879 80.8125 192.932 81.0088 193.037 81.1846C193.148 81.3604 193.312 81.5244 193.529 81.6768C193.746 81.8291 194.013 81.9727 194.329 82.1074C194.646 82.2422 195.012 82.374 195.428 82.5029C196.125 82.7139 196.737 82.9512 197.265 83.2148C197.798 83.4785 198.243 83.7744 198.601 84.1025C198.958 84.4307 199.228 84.8027 199.409 85.2188C199.591 85.6348 199.682 86.1064 199.682 86.6338C199.682 87.1904 199.573 87.6885 199.356 88.1279C199.14 88.5674 198.826 88.9395 198.416 89.2441C198.006 89.5488 197.517 89.7803 196.948 89.9385C196.38 90.0967 195.744 90.1758 195.041 90.1758C194.408 90.1758 193.784 90.0938 193.169 89.9297C192.554 89.7598 191.994 89.5049 191.49 89.165C190.992 88.8252 190.594 88.3916 190.295 87.8643C189.996 87.3369 189.847 86.7129 189.847 85.9922H192.492C192.492 86.3906 192.554 86.7275 192.677 87.0029C192.8 87.2783 192.973 87.501 193.195 87.6709C193.424 87.8408 193.693 87.9639 194.004 88.04C194.32 88.1162 194.666 88.1543 195.041 88.1543C195.498 88.1543 195.873 88.0898 196.166 87.9609C196.465 87.832 196.685 87.6533 196.825 87.4248C196.972 87.1963 197.045 86.9385 197.045 86.6514ZM149.654 104.303V104.909C149.654 105.882 149.522 106.755 149.259 107.528C148.995 108.302 148.623 108.961 148.143 109.506C147.662 110.045 147.088 110.458 146.42 110.745C145.758 111.032 145.022 111.176 144.214 111.176C143.411 111.176 142.676 111.032 142.008 110.745C141.346 110.458 140.771 110.045 140.285 109.506C139.799 108.961 139.421 108.302 139.151 107.528C138.888 106.755 138.756 105.882 138.756 104.909V104.303C138.756 103.324 138.888 102.451 139.151 101.684C139.415 100.91 139.787 100.251 140.268 99.7061C140.754 99.1611 141.328 98.7451 141.99 98.458C142.658 98.1709 143.394 98.0273 144.196 98.0273C145.005 98.0273 145.74 98.1709 146.402 98.458C147.07 98.7451 147.645 99.1611 148.125 99.7061C148.611 100.251 148.986 100.91 149.25 101.684C149.52 102.451 149.654 103.324 149.654 104.303ZM146.991 104.909V104.285C146.991 103.605 146.93 103.008 146.807 102.492C146.684 101.977 146.502 101.543 146.262 101.191C146.021 100.84 145.729 100.576 145.383 100.4C145.037 100.219 144.642 100.128 144.196 100.128C143.751 100.128 143.355 100.219 143.01 100.4C142.67 100.576 142.38 100.84 142.14 101.191C141.905 101.543 141.727 101.977 141.604 102.492C141.48 103.008 141.419 103.605 141.419 104.285V104.909C141.419 105.583 141.48 106.181 141.604 106.702C141.727 107.218 141.908 107.654 142.148 108.012C142.389 108.363 142.682 108.63 143.027 108.812C143.373 108.993 143.769 109.084 144.214 109.084C144.659 109.084 145.055 108.993 145.4 108.812C145.746 108.63 146.036 108.363 146.271 108.012C146.505 107.654 146.684 107.218 146.807 106.702C146.93 106.181 146.991 105.583 146.991 104.909ZM161.968 98.2031V111H159.331L154.189 102.422V111H151.553V98.2031H154.189L159.34 106.79V98.2031H161.968ZM174.404 104.312V109.383C174.205 109.623 173.897 109.884 173.481 110.165C173.065 110.44 172.529 110.678 171.873 110.877C171.217 111.076 170.423 111.176 169.491 111.176C168.665 111.176 167.912 111.041 167.232 110.771C166.553 110.496 165.967 110.095 165.475 109.567C164.988 109.04 164.613 108.396 164.35 107.634C164.086 106.866 163.954 105.99 163.954 105.006V104.206C163.954 103.222 164.08 102.346 164.332 101.578C164.59 100.811 164.956 100.163 165.431 99.6357C165.905 99.1084 166.471 98.707 167.127 98.4316C167.783 98.1562 168.513 98.0186 169.315 98.0186C170.429 98.0186 171.343 98.2002 172.058 98.5635C172.772 98.9209 173.317 99.4189 173.692 100.058C174.073 100.69 174.308 101.417 174.396 102.237H171.838C171.773 101.804 171.65 101.426 171.469 101.104C171.287 100.781 171.026 100.529 170.687 100.348C170.353 100.166 169.919 100.075 169.386 100.075C168.946 100.075 168.554 100.166 168.208 100.348C167.868 100.523 167.581 100.784 167.347 101.13C167.112 101.476 166.934 101.903 166.811 102.413C166.688 102.923 166.626 103.515 166.626 104.188V105.006C166.626 105.674 166.69 106.266 166.819 106.781C166.948 107.291 167.139 107.722 167.391 108.073C167.648 108.419 167.965 108.68 168.34 108.855C168.715 109.031 169.151 109.119 169.649 109.119C170.065 109.119 170.411 109.084 170.687 109.014C170.968 108.943 171.193 108.858 171.363 108.759C171.539 108.653 171.674 108.554 171.768 108.46V106.192H169.359V104.312H174.404ZM179.168 98.2031V111H176.531V98.2031H179.168ZM186.832 98.2031L181.761 104.522L178.834 107.669L178.359 105.173L180.337 102.466L183.598 98.2031H186.832ZM183.835 111L180.064 105.085L182.016 103.45L186.955 111H183.835ZM190.778 98.2031V111H188.15V98.2031H190.778ZM193.248 98.2031H198.021C198.999 98.2031 199.84 98.3496 200.543 98.6426C201.252 98.9355 201.797 99.3691 202.178 99.9434C202.559 100.518 202.749 101.224 202.749 102.062C202.749 102.747 202.632 103.336 202.397 103.828C202.169 104.314 201.844 104.722 201.422 105.05C201.006 105.372 200.517 105.63 199.954 105.823L199.119 106.263H194.971L194.953 104.206H198.038C198.501 104.206 198.885 104.124 199.189 103.96C199.494 103.796 199.723 103.567 199.875 103.274C200.033 102.981 200.112 102.642 200.112 102.255C200.112 101.845 200.036 101.49 199.884 101.191C199.731 100.893 199.5 100.664 199.189 100.506C198.879 100.348 198.489 100.269 198.021 100.269H195.885V111H193.248V98.2031ZM200.402 111L197.484 105.296L200.271 105.278L203.224 110.877V111H200.402Z" fill="white"/>
<path d="M207.174 75.4531H220.431C223.149 75.4531 225.484 75.86 227.438 76.6738C229.407 77.4876 230.921 78.6921 231.979 80.2871C233.036 81.8822 233.565 83.8434 233.565 86.1709C233.565 88.0752 233.24 89.7109 232.589 91.0781C231.954 92.429 231.051 93.5602 229.879 94.4717C228.723 95.3669 227.364 96.083 225.802 96.6201L223.482 97.8408H211.959L211.91 92.1279H220.479C221.765 92.1279 222.831 91.9001 223.678 91.4443C224.524 90.9886 225.159 90.3538 225.582 89.54C226.021 88.7262 226.241 87.7822 226.241 86.708C226.241 85.5687 226.03 84.584 225.606 83.7539C225.183 82.9238 224.54 82.2891 223.678 81.8496C222.815 81.4102 221.733 81.1904 220.431 81.1904H214.498V111H207.174V75.4531ZM227.047 111L218.941 95.1553L226.681 95.1064L234.884 110.658V111H227.047ZM253.048 98.3291H243.99V92.6162H253.048C254.448 92.6162 255.587 92.3883 256.466 91.9326C257.345 91.4606 257.988 90.8096 258.395 89.9795C258.801 89.1494 259.005 88.2135 259.005 87.1719C259.005 86.1139 258.801 85.1292 258.395 84.2178C257.988 83.3063 257.345 82.5739 256.466 82.0205C255.587 81.4671 254.448 81.1904 253.048 81.1904H246.529V111H239.205V75.4531H253.048C255.831 75.4531 258.215 75.9577 260.201 76.9668C262.203 77.9596 263.733 79.335 264.791 81.0928C265.849 82.8506 266.378 84.8607 266.378 87.123C266.378 89.418 265.849 91.4036 264.791 93.0801C263.733 94.7565 262.203 96.0505 260.201 96.9619C258.215 97.8734 255.831 98.3291 253.048 98.3291ZM294.625 90.1016V96.2539C294.625 98.9232 294.34 101.226 293.771 103.163C293.201 105.084 292.379 106.662 291.305 107.899C290.247 109.12 288.985 110.023 287.521 110.609C286.056 111.195 284.428 111.488 282.638 111.488C281.205 111.488 279.871 111.309 278.634 110.951C277.397 110.577 276.282 109.999 275.289 109.218C274.312 108.437 273.466 107.452 272.75 106.264C272.05 105.059 271.513 103.627 271.139 101.967C270.764 100.307 270.577 98.4023 270.577 96.2539V90.1016C270.577 87.4323 270.862 85.1455 271.432 83.2412C272.018 81.3206 272.84 79.75 273.897 78.5293C274.972 77.3086 276.241 76.4134 277.706 75.8438C279.171 75.2578 280.799 74.9648 282.589 74.9648C284.021 74.9648 285.348 75.152 286.568 75.5264C287.805 75.8844 288.92 76.446 289.913 77.2109C290.906 77.9759 291.752 78.9606 292.452 80.165C293.152 81.3532 293.689 82.7773 294.063 84.4375C294.438 86.0814 294.625 87.9694 294.625 90.1016ZM287.569 97.1816V89.1494C287.569 87.8636 287.496 86.7406 287.35 85.7803C287.219 84.82 287.016 84.0062 286.739 83.3389C286.463 82.6553 286.121 82.1019 285.714 81.6787C285.307 81.2555 284.843 80.9463 284.322 80.751C283.801 80.5557 283.224 80.458 282.589 80.458C281.791 80.458 281.083 80.6126 280.465 80.9219C279.863 81.2311 279.35 81.7275 278.927 82.4111C278.504 83.0785 278.178 83.9736 277.95 85.0967C277.739 86.2035 277.633 87.5544 277.633 89.1494V97.1816C277.633 98.4674 277.698 99.5986 277.828 100.575C277.975 101.552 278.186 102.39 278.463 103.09C278.756 103.773 279.098 104.335 279.488 104.774C279.895 105.198 280.359 105.507 280.88 105.702C281.417 105.897 282.003 105.995 282.638 105.995C283.419 105.995 284.111 105.84 284.713 105.531C285.331 105.206 285.852 104.701 286.275 104.018C286.715 103.318 287.04 102.406 287.252 101.283C287.464 100.16 287.569 98.793 287.569 97.1816Z" fill="#FFE600"/>
<defs>
<linearGradient id="paint0_linear_242_403" x1="214" y1="0" x2="214" y2="180" gradientUnits="userSpaceOnUse">
<stop stop-color="#0091FF"/>
<stop offset="1" stop-color="#50F090"/>
</linearGradient>
</defs>
</svg>
