<?xml version="1.0" encoding="utf-8"?>
<!-- Generator: Adobe Illustrator 24.1.3, SVG Export Plug-In . SVG Version: 6.00 Build 0)  -->
<svg version="1.1" id="Layer_1" xmlns="http://www.w3.org/2000/svg" xmlns:xlink="http://www.w3.org/1999/xlink" x="0px" y="0px"
	 viewBox="0 0 841.9 595.3" style="enable-background:new 0 0 841.9 595.3;" xml:space="preserve">
<style type="text/css">
	.st0{fill:#3076B0;}
	.st1{fill:#4184C5;}
	.st2{fill:#006CA1;}
	.st3{fill:#4E99CD;}
	.st4{fill:#006DA2;}
	.st5{fill:#FFFFFF;}
</style>
<g>
	<path class="st0" d="M294.5,104.6v177.5h135.1c7.1,15.6,13.5,21.2,13.5,21.2c-2.2-17.4,15.3-21.2,15.3-21.2V104.6H294.5z"/>
	<rect x="279.2" y="125.8" class="st1" width="163.9" height="177.5"/>
	<path class="st2" d="M321.6,152.9c0,2.5-2,4.6-4.6,4.6c-2.5,0-4.6-2-4.6-4.6c0-2.5,2-4.6,4.6-4.6
		C319.5,148.3,321.6,150.4,321.6,152.9z"/>
	<path class="st2" d="M405.4,152.9c0,2.5-2,4.6-4.6,4.6c-2.5,0-4.6-2-4.6-4.6c0-2.5,2-4.6,4.6-4.6
		C403.3,148.3,405.4,150.4,405.4,152.9z"/>
	<path class="st2" d="M279.2,125.8h25.4v-10.2C303.5,119.2,297.2,123,279.2,125.8z"/>
	<path class="st3" d="M428.8,104.6H294.9c0,0,11.3,5.2,9.6,10.9v10.2h124.2v-9.3h0.1c-0.1-3.7,6.7-8,30.6-11.8H428.8z"/>
	<path class="st2" d="M428.8,116.4L428.8,116.4l-0.1,9.3h14.4C443.1,125.8,429,121.7,428.8,116.4z"/>
	<g>
		<g>
			<path class="st4" d="M397.8,155.7v26.1c0,15.5-17.4,28-38.9,28c-21.4,0-38.9-12.6-38.9-28v-26.1h-5.8v26.1
				c0,18.7,20.1,33.8,44.7,33.8c24.7,0,44.7-15.2,44.7-33.8v-26.1H397.8z"/>
		</g>
	</g>
	<g>
		<g>
			<path class="st5" d="M397.8,152.8v26.1c0,15.5-17.4,28-38.9,28c-21.4,0-38.9-12.6-38.9-28v-26.1h-5.8v26.1
				c0,18.7,20.1,33.8,44.7,33.8c24.7,0,44.7-15.2,44.7-33.8v-26.1H397.8z"/>
		</g>
	</g>
</g>
</svg>
